<?xml version="1.0" encoding="utf-8" standalone="no"?>
<!DOCTYPE svg PUBLIC "-//W3C//DTD SVG 1.1//EN"
  "http://www.w3.org/Graphics/SVG/1.1/DTD/svg11.dtd">
<!-- Created with matplotlib (https://matplotlib.org/) -->
<svg height="265.69625pt" version="1.1" viewBox="0 0 569.747812 265.69625" width="569.747812pt" xmlns="http://www.w3.org/2000/svg" xmlns:xlink="http://www.w3.org/1999/xlink">
 <defs>
  <style type="text/css">
*{stroke-linecap:butt;stroke-linejoin:round;}
  </style>
 </defs>
 <g id="figure_1">
  <g id="patch_1">
   <path d="M 0 265.69625 
L 569.747812 265.69625 
L 569.747812 0 
L 0 0 
z
" style="fill:#ffffff;"/>
  </g>
  <g id="axes_1">
   <g id="patch_2">
    <path d="M 53.328125 228.14 
L 388.128125 228.14 
L 388.128125 10.7 
L 53.328125 10.7 
z
" style="fill:#ffffff;"/>
   </g>
   <g id="matplotlib.axis_1">
    <g id="xtick_1">
     <g id="line2d_1">
      <defs>
       <path d="M 0 0 
L 0 3.5 
" id="me8f0fdb6e3" style="stroke:#000000;stroke-width:0.8;"/>
      </defs>
      <g>
       <use style="stroke:#000000;stroke-width:0.8;" x="68.546307" xlink:href="#me8f0fdb6e3" y="228.14"/>
      </g>
     </g>
     <g id="text_1">
      <!-- 0 -->
      <defs>
       <path d="M 31.78125 66.40625 
Q 24.171875 66.40625 20.328125 58.90625 
Q 16.5 51.421875 16.5 36.375 
Q 16.5 21.390625 20.328125 13.890625 
Q 24.171875 6.390625 31.78125 6.390625 
Q 39.453125 6.390625 43.28125 13.890625 
Q 47.125 21.390625 47.125 36.375 
Q 47.125 51.421875 43.28125 58.90625 
Q 39.453125 66.40625 31.78125 66.40625 
z
M 31.78125 74.21875 
Q 44.046875 74.21875 50.515625 64.515625 
Q 56.984375 54.828125 56.984375 36.375 
Q 56.984375 17.96875 50.515625 8.265625 
Q 44.046875 -1.421875 31.78125 -1.421875 
Q 19.53125 -1.421875 13.0625 8.265625 
Q 6.59375 17.96875 6.59375 36.375 
Q 6.59375 54.828125 13.0625 64.515625 
Q 19.53125 74.21875 31.78125 74.21875 
z
" id="DejaVuSans-48"/>
      </defs>
      <g transform="translate(65.365057 242.738437)scale(0.1 -0.1)">
       <use xlink:href="#DejaVuSans-48"/>
      </g>
     </g>
    </g>
    <g id="xtick_2">
     <g id="line2d_2">
      <g>
       <use style="stroke:#000000;stroke-width:0.8;" x="130.03391" xlink:href="#me8f0fdb6e3" y="228.14"/>
      </g>
     </g>
     <g id="text_2">
      <!-- 20 -->
      <defs>
       <path d="M 19.1875 8.296875 
L 53.609375 8.296875 
L 53.609375 0 
L 7.328125 0 
L 7.328125 8.296875 
Q 12.9375 14.109375 22.625 23.890625 
Q 32.328125 33.6875 34.8125 36.53125 
Q 39.546875 41.84375 41.421875 45.53125 
Q 43.3125 49.21875 43.3125 52.78125 
Q 43.3125 58.59375 39.234375 62.25 
Q 35.15625 65.921875 28.609375 65.921875 
Q 23.96875 65.921875 18.8125 64.3125 
Q 13.671875 62.703125 7.8125 59.421875 
L 7.8125 69.390625 
Q 13.765625 71.78125 18.9375 73 
Q 24.125 74.21875 28.421875 74.21875 
Q 39.75 74.21875 46.484375 68.546875 
Q 53.21875 62.890625 53.21875 53.421875 
Q 53.21875 48.921875 51.53125 44.890625 
Q 49.859375 40.875 45.40625 35.40625 
Q 44.1875 33.984375 37.640625 27.21875 
Q 31.109375 20.453125 19.1875 8.296875 
z
" id="DejaVuSans-50"/>
      </defs>
      <g transform="translate(123.67141 242.738437)scale(0.1 -0.1)">
       <use xlink:href="#DejaVuSans-50"/>
       <use x="63.623047" xlink:href="#DejaVuSans-48"/>
      </g>
     </g>
    </g>
    <g id="xtick_3">
     <g id="line2d_3">
      <g>
       <use style="stroke:#000000;stroke-width:0.8;" x="191.521513" xlink:href="#me8f0fdb6e3" y="228.14"/>
      </g>
     </g>
     <g id="text_3">
      <!-- 40 -->
      <defs>
       <path d="M 37.796875 64.3125 
L 12.890625 25.390625 
L 37.796875 25.390625 
z
M 35.203125 72.90625 
L 47.609375 72.90625 
L 47.609375 25.390625 
L 58.015625 25.390625 
L 58.015625 17.1875 
L 47.609375 17.1875 
L 47.609375 0 
L 37.796875 0 
L 37.796875 17.1875 
L 4.890625 17.1875 
L 4.890625 26.703125 
z
" id="DejaVuSans-52"/>
      </defs>
      <g transform="translate(185.159013 242.738437)scale(0.1 -0.1)">
       <use xlink:href="#DejaVuSans-52"/>
       <use x="63.623047" xlink:href="#DejaVuSans-48"/>
      </g>
     </g>
    </g>
    <g id="xtick_4">
     <g id="line2d_4">
      <g>
       <use style="stroke:#000000;stroke-width:0.8;" x="253.009117" xlink:href="#me8f0fdb6e3" y="228.14"/>
      </g>
     </g>
     <g id="text_4">
      <!-- 60 -->
      <defs>
       <path d="M 33.015625 40.375 
Q 26.375 40.375 22.484375 35.828125 
Q 18.609375 31.296875 18.609375 23.390625 
Q 18.609375 15.53125 22.484375 10.953125 
Q 26.375 6.390625 33.015625 6.390625 
Q 39.65625 6.390625 43.53125 10.953125 
Q 47.40625 15.53125 47.40625 23.390625 
Q 47.40625 31.296875 43.53125 35.828125 
Q 39.65625 40.375 33.015625 40.375 
z
M 52.59375 71.296875 
L 52.59375 62.3125 
Q 48.875 64.0625 45.09375 64.984375 
Q 41.3125 65.921875 37.59375 65.921875 
Q 27.828125 65.921875 22.671875 59.328125 
Q 17.53125 52.734375 16.796875 39.40625 
Q 19.671875 43.65625 24.015625 45.921875 
Q 28.375 48.1875 33.59375 48.1875 
Q 44.578125 48.1875 50.953125 41.515625 
Q 57.328125 34.859375 57.328125 23.390625 
Q 57.328125 12.15625 50.6875 5.359375 
Q 44.046875 -1.421875 33.015625 -1.421875 
Q 20.359375 -1.421875 13.671875 8.265625 
Q 6.984375 17.96875 6.984375 36.375 
Q 6.984375 53.65625 15.1875 63.9375 
Q 23.390625 74.21875 37.203125 74.21875 
Q 40.921875 74.21875 44.703125 73.484375 
Q 48.484375 72.75 52.59375 71.296875 
z
" id="DejaVuSans-54"/>
      </defs>
      <g transform="translate(246.646617 242.738437)scale(0.1 -0.1)">
       <use xlink:href="#DejaVuSans-54"/>
       <use x="63.623047" xlink:href="#DejaVuSans-48"/>
      </g>
     </g>
    </g>
    <g id="xtick_5">
     <g id="line2d_5">
      <g>
       <use style="stroke:#000000;stroke-width:0.8;" x="314.49672" xlink:href="#me8f0fdb6e3" y="228.14"/>
      </g>
     </g>
     <g id="text_5">
      <!-- 80 -->
      <defs>
       <path d="M 31.78125 34.625 
Q 24.75 34.625 20.71875 30.859375 
Q 16.703125 27.09375 16.703125 20.515625 
Q 16.703125 13.921875 20.71875 10.15625 
Q 24.75 6.390625 31.78125 6.390625 
Q 38.8125 6.390625 42.859375 10.171875 
Q 46.921875 13.96875 46.921875 20.515625 
Q 46.921875 27.09375 42.890625 30.859375 
Q 38.875 34.625 31.78125 34.625 
z
M 21.921875 38.8125 
Q 15.578125 40.375 12.03125 44.71875 
Q 8.5 49.078125 8.5 55.328125 
Q 8.5 64.0625 14.71875 69.140625 
Q 20.953125 74.21875 31.78125 74.21875 
Q 42.671875 74.21875 48.875 69.140625 
Q 55.078125 64.0625 55.078125 55.328125 
Q 55.078125 49.078125 51.53125 44.71875 
Q 48 40.375 41.703125 38.8125 
Q 48.828125 37.15625 52.796875 32.3125 
Q 56.78125 27.484375 56.78125 20.515625 
Q 56.78125 9.90625 50.3125 4.234375 
Q 43.84375 -1.421875 31.78125 -1.421875 
Q 19.734375 -1.421875 13.25 4.234375 
Q 6.78125 9.90625 6.78125 20.515625 
Q 6.78125 27.484375 10.78125 32.3125 
Q 14.796875 37.15625 21.921875 38.8125 
z
M 18.3125 54.390625 
Q 18.3125 48.734375 21.84375 45.5625 
Q 25.390625 42.390625 31.78125 42.390625 
Q 38.140625 42.390625 41.71875 45.5625 
Q 45.3125 48.734375 45.3125 54.390625 
Q 45.3125 60.0625 41.71875 63.234375 
Q 38.140625 66.40625 31.78125 66.40625 
Q 25.390625 66.40625 21.84375 63.234375 
Q 18.3125 60.0625 18.3125 54.390625 
z
" id="DejaVuSans-56"/>
      </defs>
      <g transform="translate(308.13422 242.738437)scale(0.1 -0.1)">
       <use xlink:href="#DejaVuSans-56"/>
       <use x="63.623047" xlink:href="#DejaVuSans-48"/>
      </g>
     </g>
    </g>
    <g id="xtick_6">
     <g id="line2d_6">
      <g>
       <use style="stroke:#000000;stroke-width:0.8;" x="375.984323" xlink:href="#me8f0fdb6e3" y="228.14"/>
      </g>
     </g>
     <g id="text_6">
      <!-- 100 -->
      <defs>
       <path d="M 12.40625 8.296875 
L 28.515625 8.296875 
L 28.515625 63.921875 
L 10.984375 60.40625 
L 10.984375 69.390625 
L 28.421875 72.90625 
L 38.28125 72.90625 
L 38.28125 8.296875 
L 54.390625 8.296875 
L 54.390625 0 
L 12.40625 0 
z
" id="DejaVuSans-49"/>
      </defs>
      <g transform="translate(366.440573 242.738437)scale(0.1 -0.1)">
       <use xlink:href="#DejaVuSans-49"/>
       <use x="63.623047" xlink:href="#DejaVuSans-48"/>
       <use x="127.246094" xlink:href="#DejaVuSans-48"/>
      </g>
     </g>
    </g>
    <g id="text_7">
     <!-- Time Steps -->
     <defs>
      <path d="M -0.296875 72.90625 
L 61.375 72.90625 
L 61.375 64.59375 
L 35.5 64.59375 
L 35.5 0 
L 25.59375 0 
L 25.59375 64.59375 
L -0.296875 64.59375 
z
" id="DejaVuSans-84"/>
      <path d="M 9.421875 54.6875 
L 18.40625 54.6875 
L 18.40625 0 
L 9.421875 0 
z
M 9.421875 75.984375 
L 18.40625 75.984375 
L 18.40625 64.59375 
L 9.421875 64.59375 
z
" id="DejaVuSans-105"/>
      <path d="M 52 44.1875 
Q 55.375 50.25 60.0625 53.125 
Q 64.75 56 71.09375 56 
Q 79.640625 56 84.28125 50.015625 
Q 88.921875 44.046875 88.921875 33.015625 
L 88.921875 0 
L 79.890625 0 
L 79.890625 32.71875 
Q 79.890625 40.578125 77.09375 44.375 
Q 74.3125 48.1875 68.609375 48.1875 
Q 61.625 48.1875 57.5625 43.546875 
Q 53.515625 38.921875 53.515625 30.90625 
L 53.515625 0 
L 44.484375 0 
L 44.484375 32.71875 
Q 44.484375 40.625 41.703125 44.40625 
Q 38.921875 48.1875 33.109375 48.1875 
Q 26.21875 48.1875 22.15625 43.53125 
Q 18.109375 38.875 18.109375 30.90625 
L 18.109375 0 
L 9.078125 0 
L 9.078125 54.6875 
L 18.109375 54.6875 
L 18.109375 46.1875 
Q 21.1875 51.21875 25.484375 53.609375 
Q 29.78125 56 35.6875 56 
Q 41.65625 56 45.828125 52.96875 
Q 50 49.953125 52 44.1875 
z
" id="DejaVuSans-109"/>
      <path d="M 56.203125 29.59375 
L 56.203125 25.203125 
L 14.890625 25.203125 
Q 15.484375 15.921875 20.484375 11.0625 
Q 25.484375 6.203125 34.421875 6.203125 
Q 39.59375 6.203125 44.453125 7.46875 
Q 49.3125 8.734375 54.109375 11.28125 
L 54.109375 2.78125 
Q 49.265625 0.734375 44.1875 -0.34375 
Q 39.109375 -1.421875 33.890625 -1.421875 
Q 20.796875 -1.421875 13.15625 6.1875 
Q 5.515625 13.8125 5.515625 26.8125 
Q 5.515625 40.234375 12.765625 48.109375 
Q 20.015625 56 32.328125 56 
Q 43.359375 56 49.78125 48.890625 
Q 56.203125 41.796875 56.203125 29.59375 
z
M 47.21875 32.234375 
Q 47.125 39.59375 43.09375 43.984375 
Q 39.0625 48.390625 32.421875 48.390625 
Q 24.90625 48.390625 20.390625 44.140625 
Q 15.875 39.890625 15.1875 32.171875 
z
" id="DejaVuSans-101"/>
      <path id="DejaVuSans-32"/>
      <path d="M 53.515625 70.515625 
L 53.515625 60.890625 
Q 47.90625 63.578125 42.921875 64.890625 
Q 37.9375 66.21875 33.296875 66.21875 
Q 25.25 66.21875 20.875 63.09375 
Q 16.5 59.96875 16.5 54.203125 
Q 16.5 49.359375 19.40625 46.890625 
Q 22.3125 44.4375 30.421875 42.921875 
L 36.375 41.703125 
Q 47.40625 39.59375 52.65625 34.296875 
Q 57.90625 29 57.90625 20.125 
Q 57.90625 9.515625 50.796875 4.046875 
Q 43.703125 -1.421875 29.984375 -1.421875 
Q 24.8125 -1.421875 18.96875 -0.25 
Q 13.140625 0.921875 6.890625 3.21875 
L 6.890625 13.375 
Q 12.890625 10.015625 18.65625 8.296875 
Q 24.421875 6.59375 29.984375 6.59375 
Q 38.421875 6.59375 43.015625 9.90625 
Q 47.609375 13.234375 47.609375 19.390625 
Q 47.609375 24.75 44.3125 27.78125 
Q 41.015625 30.8125 33.5 32.328125 
L 27.484375 33.5 
Q 16.453125 35.6875 11.515625 40.375 
Q 6.59375 45.0625 6.59375 53.421875 
Q 6.59375 63.09375 13.40625 68.65625 
Q 20.21875 74.21875 32.171875 74.21875 
Q 37.3125 74.21875 42.625 73.28125 
Q 47.953125 72.359375 53.515625 70.515625 
z
" id="DejaVuSans-83"/>
      <path d="M 18.3125 70.21875 
L 18.3125 54.6875 
L 36.8125 54.6875 
L 36.8125 47.703125 
L 18.3125 47.703125 
L 18.3125 18.015625 
Q 18.3125 11.328125 20.140625 9.421875 
Q 21.96875 7.515625 27.59375 7.515625 
L 36.8125 7.515625 
L 36.8125 0 
L 27.59375 0 
Q 17.1875 0 13.234375 3.875 
Q 9.28125 7.765625 9.28125 18.015625 
L 9.28125 47.703125 
L 2.6875 47.703125 
L 2.6875 54.6875 
L 9.28125 54.6875 
L 9.28125 70.21875 
z
" id="DejaVuSans-116"/>
      <path d="M 18.109375 8.203125 
L 18.109375 -20.796875 
L 9.078125 -20.796875 
L 9.078125 54.6875 
L 18.109375 54.6875 
L 18.109375 46.390625 
Q 20.953125 51.265625 25.265625 53.625 
Q 29.59375 56 35.59375 56 
Q 45.5625 56 51.78125 48.09375 
Q 58.015625 40.1875 58.015625 27.296875 
Q 58.015625 14.40625 51.78125 6.484375 
Q 45.5625 -1.421875 35.59375 -1.421875 
Q 29.59375 -1.421875 25.265625 0.953125 
Q 20.953125 3.328125 18.109375 8.203125 
z
M 48.6875 27.296875 
Q 48.6875 37.203125 44.609375 42.84375 
Q 40.53125 48.484375 33.40625 48.484375 
Q 26.265625 48.484375 22.1875 42.84375 
Q 18.109375 37.203125 18.109375 27.296875 
Q 18.109375 17.390625 22.1875 11.75 
Q 26.265625 6.109375 33.40625 6.109375 
Q 40.53125 6.109375 44.609375 11.75 
Q 48.6875 17.390625 48.6875 27.296875 
z
" id="DejaVuSans-112"/>
      <path d="M 44.28125 53.078125 
L 44.28125 44.578125 
Q 40.484375 46.53125 36.375 47.5 
Q 32.28125 48.484375 27.875 48.484375 
Q 21.1875 48.484375 17.84375 46.4375 
Q 14.5 44.390625 14.5 40.28125 
Q 14.5 37.15625 16.890625 35.375 
Q 19.28125 33.59375 26.515625 31.984375 
L 29.59375 31.296875 
Q 39.15625 29.25 43.1875 25.515625 
Q 47.21875 21.78125 47.21875 15.09375 
Q 47.21875 7.46875 41.1875 3.015625 
Q 35.15625 -1.421875 24.609375 -1.421875 
Q 20.21875 -1.421875 15.453125 -0.5625 
Q 10.6875 0.296875 5.421875 2 
L 5.421875 11.28125 
Q 10.40625 8.6875 15.234375 7.390625 
Q 20.0625 6.109375 24.8125 6.109375 
Q 31.15625 6.109375 34.5625 8.28125 
Q 37.984375 10.453125 37.984375 14.40625 
Q 37.984375 18.0625 35.515625 20.015625 
Q 33.0625 21.96875 24.703125 23.78125 
L 21.578125 24.515625 
Q 13.234375 26.265625 9.515625 29.90625 
Q 5.8125 33.546875 5.8125 39.890625 
Q 5.8125 47.609375 11.28125 51.796875 
Q 16.75 56 26.8125 56 
Q 31.78125 56 36.171875 55.265625 
Q 40.578125 54.546875 44.28125 53.078125 
z
" id="DejaVuSans-115"/>
     </defs>
     <g transform="translate(192.761719 256.416562)scale(0.1 -0.1)">
      <use xlink:href="#DejaVuSans-84"/>
      <use x="61.037109" xlink:href="#DejaVuSans-105"/>
      <use x="88.820312" xlink:href="#DejaVuSans-109"/>
      <use x="186.232422" xlink:href="#DejaVuSans-101"/>
      <use x="247.755859" xlink:href="#DejaVuSans-32"/>
      <use x="279.542969" xlink:href="#DejaVuSans-83"/>
      <use x="343.019531" xlink:href="#DejaVuSans-116"/>
      <use x="382.228516" xlink:href="#DejaVuSans-101"/>
      <use x="443.751953" xlink:href="#DejaVuSans-112"/>
      <use x="507.228516" xlink:href="#DejaVuSans-115"/>
     </g>
    </g>
   </g>
   <g id="matplotlib.axis_2">
    <g id="ytick_1">
     <g id="line2d_7">
      <defs>
       <path d="M 0 0 
L -3.5 0 
" id="mff3cc7e4df" style="stroke:#000000;stroke-width:0.8;"/>
      </defs>
      <g>
       <use style="stroke:#000000;stroke-width:0.8;" x="53.328125" xlink:href="#mff3cc7e4df" y="215.143407"/>
      </g>
     </g>
     <g id="text_8">
      <!-- 1000 -->
      <g transform="translate(20.878125 218.942626)scale(0.1 -0.1)">
       <use xlink:href="#DejaVuSans-49"/>
       <use x="63.623047" xlink:href="#DejaVuSans-48"/>
       <use x="127.246094" xlink:href="#DejaVuSans-48"/>
       <use x="190.869141" xlink:href="#DejaVuSans-48"/>
      </g>
     </g>
    </g>
    <g id="ytick_2">
     <g id="line2d_8">
      <g>
       <use style="stroke:#000000;stroke-width:0.8;" x="53.328125" xlink:href="#mff3cc7e4df" y="176.231453"/>
      </g>
     </g>
     <g id="text_9">
      <!-- 1100 -->
      <g transform="translate(20.878125 180.030672)scale(0.1 -0.1)">
       <use xlink:href="#DejaVuSans-49"/>
       <use x="63.623047" xlink:href="#DejaVuSans-49"/>
       <use x="127.246094" xlink:href="#DejaVuSans-48"/>
       <use x="190.869141" xlink:href="#DejaVuSans-48"/>
      </g>
     </g>
    </g>
    <g id="ytick_3">
     <g id="line2d_9">
      <g>
       <use style="stroke:#000000;stroke-width:0.8;" x="53.328125" xlink:href="#mff3cc7e4df" y="137.319499"/>
      </g>
     </g>
     <g id="text_10">
      <!-- 1200 -->
      <g transform="translate(20.878125 141.118718)scale(0.1 -0.1)">
       <use xlink:href="#DejaVuSans-49"/>
       <use x="63.623047" xlink:href="#DejaVuSans-50"/>
       <use x="127.246094" xlink:href="#DejaVuSans-48"/>
       <use x="190.869141" xlink:href="#DejaVuSans-48"/>
      </g>
     </g>
    </g>
    <g id="ytick_4">
     <g id="line2d_10">
      <g>
       <use style="stroke:#000000;stroke-width:0.8;" x="53.328125" xlink:href="#mff3cc7e4df" y="98.407545"/>
      </g>
     </g>
     <g id="text_11">
      <!-- 1300 -->
      <defs>
       <path d="M 40.578125 39.3125 
Q 47.65625 37.796875 51.625 33 
Q 55.609375 28.21875 55.609375 21.1875 
Q 55.609375 10.40625 48.1875 4.484375 
Q 40.765625 -1.421875 27.09375 -1.421875 
Q 22.515625 -1.421875 17.65625 -0.515625 
Q 12.796875 0.390625 7.625 2.203125 
L 7.625 11.71875 
Q 11.71875 9.328125 16.59375 8.109375 
Q 21.484375 6.890625 26.8125 6.890625 
Q 36.078125 6.890625 40.9375 10.546875 
Q 45.796875 14.203125 45.796875 21.1875 
Q 45.796875 27.640625 41.28125 31.265625 
Q 36.765625 34.90625 28.71875 34.90625 
L 20.21875 34.90625 
L 20.21875 43.015625 
L 29.109375 43.015625 
Q 36.375 43.015625 40.234375 45.921875 
Q 44.09375 48.828125 44.09375 54.296875 
Q 44.09375 59.90625 40.109375 62.90625 
Q 36.140625 65.921875 28.71875 65.921875 
Q 24.65625 65.921875 20.015625 65.03125 
Q 15.375 64.15625 9.8125 62.3125 
L 9.8125 71.09375 
Q 15.4375 72.65625 20.34375 73.4375 
Q 25.25 74.21875 29.59375 74.21875 
Q 40.828125 74.21875 47.359375 69.109375 
Q 53.90625 64.015625 53.90625 55.328125 
Q 53.90625 49.265625 50.4375 45.09375 
Q 46.96875 40.921875 40.578125 39.3125 
z
" id="DejaVuSans-51"/>
      </defs>
      <g transform="translate(20.878125 102.206763)scale(0.1 -0.1)">
       <use xlink:href="#DejaVuSans-49"/>
       <use x="63.623047" xlink:href="#DejaVuSans-51"/>
       <use x="127.246094" xlink:href="#DejaVuSans-48"/>
       <use x="190.869141" xlink:href="#DejaVuSans-48"/>
      </g>
     </g>
    </g>
    <g id="ytick_5">
     <g id="line2d_11">
      <g>
       <use style="stroke:#000000;stroke-width:0.8;" x="53.328125" xlink:href="#mff3cc7e4df" y="59.495591"/>
      </g>
     </g>
     <g id="text_12">
      <!-- 1400 -->
      <g transform="translate(20.878125 63.294809)scale(0.1 -0.1)">
       <use xlink:href="#DejaVuSans-49"/>
       <use x="63.623047" xlink:href="#DejaVuSans-52"/>
       <use x="127.246094" xlink:href="#DejaVuSans-48"/>
       <use x="190.869141" xlink:href="#DejaVuSans-48"/>
      </g>
     </g>
    </g>
    <g id="ytick_6">
     <g id="line2d_12">
      <g>
       <use style="stroke:#000000;stroke-width:0.8;" x="53.328125" xlink:href="#mff3cc7e4df" y="20.583636"/>
      </g>
     </g>
     <g id="text_13">
      <!-- 1500 -->
      <defs>
       <path d="M 10.796875 72.90625 
L 49.515625 72.90625 
L 49.515625 64.59375 
L 19.828125 64.59375 
L 19.828125 46.734375 
Q 21.96875 47.46875 24.109375 47.828125 
Q 26.265625 48.1875 28.421875 48.1875 
Q 40.625 48.1875 47.75 41.5 
Q 54.890625 34.8125 54.890625 23.390625 
Q 54.890625 11.625 47.5625 5.09375 
Q 40.234375 -1.421875 26.90625 -1.421875 
Q 22.3125 -1.421875 17.546875 -0.640625 
Q 12.796875 0.140625 7.71875 1.703125 
L 7.71875 11.625 
Q 12.109375 9.234375 16.796875 8.0625 
Q 21.484375 6.890625 26.703125 6.890625 
Q 35.15625 6.890625 40.078125 11.328125 
Q 45.015625 15.765625 45.015625 23.390625 
Q 45.015625 31 40.078125 35.4375 
Q 35.15625 39.890625 26.703125 39.890625 
Q 22.75 39.890625 18.8125 39.015625 
Q 14.890625 38.140625 10.796875 36.28125 
z
" id="DejaVuSans-53"/>
      </defs>
      <g transform="translate(20.878125 24.382855)scale(0.1 -0.1)">
       <use xlink:href="#DejaVuSans-49"/>
       <use x="63.623047" xlink:href="#DejaVuSans-53"/>
       <use x="127.246094" xlink:href="#DejaVuSans-48"/>
       <use x="190.869141" xlink:href="#DejaVuSans-48"/>
      </g>
     </g>
    </g>
    <g id="text_14">
     <!-- Number of Agents Alive -->
     <defs>
      <path d="M 9.8125 72.90625 
L 23.09375 72.90625 
L 55.421875 11.921875 
L 55.421875 72.90625 
L 64.984375 72.90625 
L 64.984375 0 
L 51.703125 0 
L 19.390625 60.984375 
L 19.390625 0 
L 9.8125 0 
z
" id="DejaVuSans-78"/>
      <path d="M 8.5 21.578125 
L 8.5 54.6875 
L 17.484375 54.6875 
L 17.484375 21.921875 
Q 17.484375 14.15625 20.5 10.265625 
Q 23.53125 6.390625 29.59375 6.390625 
Q 36.859375 6.390625 41.078125 11.03125 
Q 45.3125 15.671875 45.3125 23.6875 
L 45.3125 54.6875 
L 54.296875 54.6875 
L 54.296875 0 
L 45.3125 0 
L 45.3125 8.40625 
Q 42.046875 3.421875 37.71875 1 
Q 33.40625 -1.421875 27.6875 -1.421875 
Q 18.265625 -1.421875 13.375 4.4375 
Q 8.5 10.296875 8.5 21.578125 
z
M 31.109375 56 
z
" id="DejaVuSans-117"/>
      <path d="M 48.6875 27.296875 
Q 48.6875 37.203125 44.609375 42.84375 
Q 40.53125 48.484375 33.40625 48.484375 
Q 26.265625 48.484375 22.1875 42.84375 
Q 18.109375 37.203125 18.109375 27.296875 
Q 18.109375 17.390625 22.1875 11.75 
Q 26.265625 6.109375 33.40625 6.109375 
Q 40.53125 6.109375 44.609375 11.75 
Q 48.6875 17.390625 48.6875 27.296875 
z
M 18.109375 46.390625 
Q 20.953125 51.265625 25.265625 53.625 
Q 29.59375 56 35.59375 56 
Q 45.5625 56 51.78125 48.09375 
Q 58.015625 40.1875 58.015625 27.296875 
Q 58.015625 14.40625 51.78125 6.484375 
Q 45.5625 -1.421875 35.59375 -1.421875 
Q 29.59375 -1.421875 25.265625 0.953125 
Q 20.953125 3.328125 18.109375 8.203125 
L 18.109375 0 
L 9.078125 0 
L 9.078125 75.984375 
L 18.109375 75.984375 
z
" id="DejaVuSans-98"/>
      <path d="M 41.109375 46.296875 
Q 39.59375 47.171875 37.8125 47.578125 
Q 36.03125 48 33.890625 48 
Q 26.265625 48 22.1875 43.046875 
Q 18.109375 38.09375 18.109375 28.8125 
L 18.109375 0 
L 9.078125 0 
L 9.078125 54.6875 
L 18.109375 54.6875 
L 18.109375 46.1875 
Q 20.953125 51.171875 25.484375 53.578125 
Q 30.03125 56 36.53125 56 
Q 37.453125 56 38.578125 55.875 
Q 39.703125 55.765625 41.0625 55.515625 
z
" id="DejaVuSans-114"/>
      <path d="M 30.609375 48.390625 
Q 23.390625 48.390625 19.1875 42.75 
Q 14.984375 37.109375 14.984375 27.296875 
Q 14.984375 17.484375 19.15625 11.84375 
Q 23.34375 6.203125 30.609375 6.203125 
Q 37.796875 6.203125 41.984375 11.859375 
Q 46.1875 17.53125 46.1875 27.296875 
Q 46.1875 37.015625 41.984375 42.703125 
Q 37.796875 48.390625 30.609375 48.390625 
z
M 30.609375 56 
Q 42.328125 56 49.015625 48.375 
Q 55.71875 40.765625 55.71875 27.296875 
Q 55.71875 13.875 49.015625 6.21875 
Q 42.328125 -1.421875 30.609375 -1.421875 
Q 18.84375 -1.421875 12.171875 6.21875 
Q 5.515625 13.875 5.515625 27.296875 
Q 5.515625 40.765625 12.171875 48.375 
Q 18.84375 56 30.609375 56 
z
" id="DejaVuSans-111"/>
      <path d="M 37.109375 75.984375 
L 37.109375 68.5 
L 28.515625 68.5 
Q 23.6875 68.5 21.796875 66.546875 
Q 19.921875 64.59375 19.921875 59.515625 
L 19.921875 54.6875 
L 34.71875 54.6875 
L 34.71875 47.703125 
L 19.921875 47.703125 
L 19.921875 0 
L 10.890625 0 
L 10.890625 47.703125 
L 2.296875 47.703125 
L 2.296875 54.6875 
L 10.890625 54.6875 
L 10.890625 58.5 
Q 10.890625 67.625 15.140625 71.796875 
Q 19.390625 75.984375 28.609375 75.984375 
z
" id="DejaVuSans-102"/>
      <path d="M 34.1875 63.1875 
L 20.796875 26.90625 
L 47.609375 26.90625 
z
M 28.609375 72.90625 
L 39.796875 72.90625 
L 67.578125 0 
L 57.328125 0 
L 50.6875 18.703125 
L 17.828125 18.703125 
L 11.1875 0 
L 0.78125 0 
z
" id="DejaVuSans-65"/>
      <path d="M 45.40625 27.984375 
Q 45.40625 37.75 41.375 43.109375 
Q 37.359375 48.484375 30.078125 48.484375 
Q 22.859375 48.484375 18.828125 43.109375 
Q 14.796875 37.75 14.796875 27.984375 
Q 14.796875 18.265625 18.828125 12.890625 
Q 22.859375 7.515625 30.078125 7.515625 
Q 37.359375 7.515625 41.375 12.890625 
Q 45.40625 18.265625 45.40625 27.984375 
z
M 54.390625 6.78125 
Q 54.390625 -7.171875 48.1875 -13.984375 
Q 42 -20.796875 29.203125 -20.796875 
Q 24.46875 -20.796875 20.265625 -20.09375 
Q 16.0625 -19.390625 12.109375 -17.921875 
L 12.109375 -9.1875 
Q 16.0625 -11.328125 19.921875 -12.34375 
Q 23.78125 -13.375 27.78125 -13.375 
Q 36.625 -13.375 41.015625 -8.765625 
Q 45.40625 -4.15625 45.40625 5.171875 
L 45.40625 9.625 
Q 42.625 4.78125 38.28125 2.390625 
Q 33.9375 0 27.875 0 
Q 17.828125 0 11.671875 7.65625 
Q 5.515625 15.328125 5.515625 27.984375 
Q 5.515625 40.671875 11.671875 48.328125 
Q 17.828125 56 27.875 56 
Q 33.9375 56 38.28125 53.609375 
Q 42.625 51.21875 45.40625 46.390625 
L 45.40625 54.6875 
L 54.390625 54.6875 
z
" id="DejaVuSans-103"/>
      <path d="M 54.890625 33.015625 
L 54.890625 0 
L 45.90625 0 
L 45.90625 32.71875 
Q 45.90625 40.484375 42.875 44.328125 
Q 39.84375 48.1875 33.796875 48.1875 
Q 26.515625 48.1875 22.3125 43.546875 
Q 18.109375 38.921875 18.109375 30.90625 
L 18.109375 0 
L 9.078125 0 
L 9.078125 54.6875 
L 18.109375 54.6875 
L 18.109375 46.1875 
Q 21.34375 51.125 25.703125 53.5625 
Q 30.078125 56 35.796875 56 
Q 45.21875 56 50.046875 50.171875 
Q 54.890625 44.34375 54.890625 33.015625 
z
" id="DejaVuSans-110"/>
      <path d="M 9.421875 75.984375 
L 18.40625 75.984375 
L 18.40625 0 
L 9.421875 0 
z
" id="DejaVuSans-108"/>
      <path d="M 2.984375 54.6875 
L 12.5 54.6875 
L 29.59375 8.796875 
L 46.6875 54.6875 
L 56.203125 54.6875 
L 35.6875 0 
L 23.484375 0 
z
" id="DejaVuSans-118"/>
     </defs>
     <g transform="translate(14.798438 178.731719)rotate(-90)scale(0.1 -0.1)">
      <use xlink:href="#DejaVuSans-78"/>
      <use x="74.804688" xlink:href="#DejaVuSans-117"/>
      <use x="138.183594" xlink:href="#DejaVuSans-109"/>
      <use x="235.595703" xlink:href="#DejaVuSans-98"/>
      <use x="299.072266" xlink:href="#DejaVuSans-101"/>
      <use x="360.595703" xlink:href="#DejaVuSans-114"/>
      <use x="401.708984" xlink:href="#DejaVuSans-32"/>
      <use x="433.496094" xlink:href="#DejaVuSans-111"/>
      <use x="494.677734" xlink:href="#DejaVuSans-102"/>
      <use x="529.882812" xlink:href="#DejaVuSans-32"/>
      <use x="561.669922" xlink:href="#DejaVuSans-65"/>
      <use x="630.078125" xlink:href="#DejaVuSans-103"/>
      <use x="693.554688" xlink:href="#DejaVuSans-101"/>
      <use x="755.078125" xlink:href="#DejaVuSans-110"/>
      <use x="818.457031" xlink:href="#DejaVuSans-116"/>
      <use x="857.666016" xlink:href="#DejaVuSans-115"/>
      <use x="909.765625" xlink:href="#DejaVuSans-32"/>
      <use x="941.552734" xlink:href="#DejaVuSans-65"/>
      <use x="1009.960938" xlink:href="#DejaVuSans-108"/>
      <use x="1037.744141" xlink:href="#DejaVuSans-105"/>
      <use x="1065.527344" xlink:href="#DejaVuSans-118"/>
      <use x="1124.707031" xlink:href="#DejaVuSans-101"/>
     </g>
    </g>
   </g>
   <g id="line2d_13">
    <path clip-path="url(#p1848186911)" d="M 68.546307 20.583636 
L 71.620687 20.583636 
L 74.695067 22.140115 
L 77.769447 22.529234 
L 80.843827 23.696593 
L 83.918208 24.474832 
L 86.992588 26.03131 
L 90.066968 26.809549 
L 93.141348 29.144266 
L 96.215728 31.868103 
L 99.290108 34.981059 
L 102.364489 37.315777 
L 105.438869 41.985211 
L 108.513249 44.709048 
L 111.587629 46.265526 
L 114.662009 47.432885 
L 117.736389 48.989363 
L 120.81077 50.934961 
L 123.88515 51.7132 
L 126.95953 52.491439 
L 130.03391 54.437037 
L 133.10829 55.215276 
L 136.18267 58.717351 
L 139.257051 61.441188 
L 142.331431 62.608547 
L 145.405811 64.943264 
L 148.480191 66.110623 
L 151.554571 69.612699 
L 154.628951 72.725655 
L 157.703332 75.838611 
L 160.777712 78.562448 
L 163.852092 85.955719 
L 166.926472 92.181632 
L 170.000852 96.851067 
L 173.075232 102.29874 
L 176.149613 107.746414 
L 179.223993 111.637609 
L 182.298373 115.139685 
L 185.372753 122.532956 
L 188.447133 129.926228 
L 191.521513 135.763021 
L 194.595894 143.545412 
L 197.670274 150.938683 
L 200.744654 154.829878 
L 203.819034 162.22315 
L 206.893414 167.281704 
L 209.967794 173.896736 
L 213.042175 180.122649 
L 216.116555 182.846485 
L 219.190935 187.905039 
L 222.265315 192.574474 
L 225.339695 194.130952 
L 228.414075 196.854789 
L 231.488456 200.356865 
L 234.562836 204.24806 
L 237.637216 206.582777 
L 240.711596 209.306614 
L 243.785976 212.030451 
L 246.860356 213.586929 
L 249.934737 214.754288 
L 253.009117 216.699885 
L 256.083497 217.478125 
L 259.157877 217.478125 
L 262.232257 217.867244 
L 265.306637 217.867244 
L 268.381018 218.256364 
L 271.455398 218.256364 
L 274.529778 218.256364 
L 277.604158 218.256364 
L 280.678538 218.256364 
L 283.752918 218.256364 
L 286.827299 218.256364 
L 289.901679 218.256364 
L 292.976059 218.256364 
L 296.050439 218.256364 
L 299.124819 218.256364 
L 302.199199 218.256364 
L 305.27358 218.256364 
L 308.34796 218.256364 
L 311.42234 218.256364 
L 314.49672 218.256364 
L 317.5711 218.256364 
L 320.64548 218.256364 
L 323.719861 218.256364 
L 326.794241 218.256364 
L 329.868621 218.256364 
L 332.943001 218.256364 
L 336.017381 218.256364 
L 339.091761 218.256364 
L 342.166142 218.256364 
L 345.240522 218.256364 
L 348.314902 218.256364 
L 351.389282 218.256364 
L 354.463662 218.256364 
L 357.538042 218.256364 
L 360.612423 218.256364 
L 363.686803 218.256364 
L 366.761183 218.256364 
L 369.835563 218.256364 
L 372.909943 218.256364 
" style="fill:none;stroke:#1f77b4;stroke-linecap:square;"/>
   </g>
   <g id="line2d_14">
    <path clip-path="url(#p1848186911)" d="M 68.546307 20.583636 
L 71.620687 22.140115 
L 74.695067 22.529234 
L 77.769447 22.918354 
L 80.843827 23.696593 
L 83.918208 23.696593 
L 86.992588 24.474832 
L 90.066968 25.253071 
L 93.141348 25.253071 
L 96.215728 26.03131 
L 99.290108 27.198669 
L 102.364489 27.976908 
L 105.438869 30.311625 
L 108.513249 31.868103 
L 111.587629 33.813701 
L 114.662009 35.370179 
L 117.736389 36.537538 
L 120.81077 38.483135 
L 123.88515 40.428733 
L 126.95953 41.206972 
L 130.03391 43.541689 
L 133.10829 45.487287 
L 136.18267 47.822004 
L 139.257051 49.767602 
L 142.331431 50.545841 
L 145.405811 53.269678 
L 148.480191 55.604395 
L 151.554571 55.993515 
L 154.628951 56.771754 
L 157.703332 59.88471 
L 160.777712 62.997666 
L 163.852092 68.05622 
L 166.926472 71.169177 
L 170.000852 74.671253 
L 173.075232 79.340687 
L 176.149613 83.621002 
L 179.223993 89.068676 
L 182.298373 94.12723 
L 185.372753 101.520501 
L 188.447133 107.746414 
L 191.521513 116.307044 
L 194.595894 119.42 
L 197.670274 124.867674 
L 200.744654 129.537108 
L 203.819034 134.206543 
L 206.893414 138.875977 
L 209.967794 141.210694 
L 213.042175 146.269248 
L 216.116555 149.382205 
L 219.190935 151.327802 
L 222.265315 152.884281 
L 225.339695 153.66252 
L 228.414075 154.051639 
L 231.488456 155.608117 
L 234.562836 157.164596 
L 237.637216 159.499313 
L 240.711596 161.055791 
L 243.785976 161.055791 
L 246.860356 162.612269 
L 249.934737 163.779628 
L 253.009117 163.779628 
L 256.083497 163.779628 
L 259.157877 163.779628 
L 262.232257 164.557867 
L 265.306637 164.946986 
L 268.381018 165.336106 
L 271.455398 165.336106 
L 274.529778 165.725225 
L 277.604158 165.725225 
L 280.678538 165.725225 
L 283.752918 165.725225 
L 286.827299 165.725225 
L 289.901679 165.725225 
L 292.976059 165.725225 
L 296.050439 165.725225 
L 299.124819 165.725225 
L 302.199199 165.725225 
L 305.27358 165.725225 
L 308.34796 165.725225 
L 311.42234 165.725225 
L 314.49672 165.725225 
L 317.5711 165.725225 
L 320.64548 165.725225 
L 323.719861 165.725225 
L 326.794241 165.725225 
L 329.868621 165.725225 
L 332.943001 165.725225 
L 336.017381 165.725225 
L 339.091761 165.725225 
L 342.166142 165.725225 
L 345.240522 165.725225 
L 348.314902 165.725225 
L 351.389282 165.725225 
L 354.463662 165.725225 
L 357.538042 165.725225 
L 360.612423 165.725225 
L 363.686803 165.725225 
L 366.761183 165.725225 
L 369.835563 165.725225 
L 372.909943 165.725225 
" style="fill:none;stroke:#ff7f0e;stroke-linecap:square;"/>
   </g>
   <g id="line2d_15">
    <path clip-path="url(#p1848186911)" d="M 68.546307 20.583636 
L 71.620687 22.140115 
L 74.695067 22.529234 
L 77.769447 23.696593 
L 80.843827 24.085712 
L 83.918208 24.474832 
L 86.992588 24.863951 
L 90.066968 25.253071 
L 93.141348 25.253071 
L 96.215728 26.809549 
L 99.290108 27.198669 
L 102.364489 28.755147 
L 105.438869 30.700744 
L 108.513249 32.257223 
L 111.587629 34.20282 
L 114.662009 35.759298 
L 117.736389 38.483135 
L 120.81077 40.428733 
L 123.88515 41.206972 
L 126.95953 42.76345 
L 130.03391 43.930809 
L 133.10829 46.654646 
L 136.18267 48.600243 
L 139.257051 50.156722 
L 142.331431 52.102319 
L 145.405811 54.437037 
L 148.480191 56.382634 
L 151.554571 57.160873 
L 154.628951 57.939112 
L 157.703332 58.328232 
L 160.777712 58.717351 
L 163.852092 59.106471 
L 166.926472 60.27383 
L 170.000852 61.441188 
L 173.075232 62.608547 
L 176.149613 62.997666 
L 179.223993 63.775906 
L 182.298373 63.775906 
L 185.372753 63.775906 
L 188.447133 64.554145 
L 191.521513 65.332384 
L 194.595894 65.721503 
L 197.670274 66.888862 
L 200.744654 67.277981 
L 203.819034 68.83446 
L 206.893414 68.83446 
L 209.967794 69.223579 
L 213.042175 70.390938 
L 216.116555 70.780057 
L 219.190935 71.947416 
L 222.265315 72.336535 
L 225.339695 73.114775 
L 228.414075 73.114775 
L 231.488456 73.114775 
L 234.562836 73.893014 
L 237.637216 74.671253 
L 240.711596 75.060372 
L 243.785976 75.449492 
L 246.860356 76.61685 
L 249.934737 77.00597 
L 253.009117 77.00597 
L 256.083497 77.00597 
L 259.157877 77.00597 
L 262.232257 77.00597 
L 265.306637 77.00597 
L 268.381018 77.00597 
L 271.455398 77.00597 
L 274.529778 77.00597 
L 277.604158 77.00597 
L 280.678538 77.00597 
L 283.752918 77.00597 
L 286.827299 77.00597 
L 289.901679 77.00597 
L 292.976059 77.00597 
L 296.050439 77.00597 
L 299.124819 77.00597 
L 302.199199 77.00597 
L 305.27358 77.00597 
L 308.34796 77.00597 
L 311.42234 77.00597 
L 314.49672 77.00597 
L 317.5711 77.00597 
L 320.64548 77.00597 
L 323.719861 77.00597 
L 326.794241 77.00597 
L 329.868621 77.00597 
L 332.943001 77.00597 
L 336.017381 77.00597 
L 339.091761 77.00597 
L 342.166142 77.00597 
L 345.240522 77.00597 
L 348.314902 77.00597 
L 351.389282 77.00597 
L 354.463662 77.00597 
L 357.538042 77.00597 
L 360.612423 77.00597 
L 363.686803 77.00597 
L 366.761183 77.00597 
L 369.835563 77.00597 
L 372.909943 77.00597 
" style="fill:none;stroke:#2ca02c;stroke-linecap:square;"/>
   </g>
   <g id="line2d_16">
    <path clip-path="url(#p1848186911)" d="M 68.546307 20.583636 
L 71.620687 20.583636 
L 74.695067 20.972756 
L 77.769447 21.361875 
L 80.843827 22.529234 
L 83.918208 24.085712 
L 86.992588 24.863951 
L 90.066968 25.64219 
L 93.141348 26.809549 
L 96.215728 27.976908 
L 99.290108 29.533386 
L 102.364489 30.700744 
L 105.438869 32.646342 
L 108.513249 33.424581 
L 111.587629 33.813701 
L 114.662009 33.813701 
L 117.736389 33.813701 
L 120.81077 33.813701 
L 123.88515 33.813701 
L 126.95953 34.981059 
L 130.03391 35.370179 
L 133.10829 36.537538 
L 136.18267 36.537538 
L 139.257051 36.926657 
L 142.331431 36.926657 
L 145.405811 37.315777 
L 148.480191 37.315777 
L 151.554571 37.315777 
L 154.628951 38.094016 
L 157.703332 38.094016 
L 160.777712 38.094016 
L 163.852092 38.094016 
L 166.926472 38.094016 
L 170.000852 38.094016 
L 173.075232 38.094016 
L 176.149613 38.094016 
L 179.223993 38.094016 
L 182.298373 38.094016 
L 185.372753 38.094016 
L 188.447133 38.094016 
L 191.521513 38.094016 
L 194.595894 38.094016 
L 197.670274 38.094016 
L 200.744654 38.094016 
L 203.819034 38.094016 
L 206.893414 38.094016 
L 209.967794 38.094016 
L 213.042175 38.094016 
L 216.116555 38.094016 
L 219.190935 38.094016 
L 222.265315 38.094016 
L 225.339695 38.094016 
L 228.414075 38.094016 
L 231.488456 38.094016 
L 234.562836 38.094016 
L 237.637216 38.094016 
L 240.711596 38.094016 
L 243.785976 38.094016 
L 246.860356 38.094016 
L 249.934737 38.094016 
L 253.009117 38.094016 
L 256.083497 38.094016 
L 259.157877 38.094016 
L 262.232257 38.094016 
L 265.306637 38.094016 
L 268.381018 38.094016 
L 271.455398 38.094016 
L 274.529778 38.094016 
L 277.604158 38.094016 
L 280.678538 38.094016 
L 283.752918 38.094016 
L 286.827299 38.094016 
L 289.901679 38.094016 
L 292.976059 38.094016 
L 296.050439 38.094016 
L 299.124819 38.094016 
L 302.199199 38.094016 
L 305.27358 38.094016 
L 308.34796 38.094016 
L 311.42234 38.094016 
L 314.49672 38.094016 
L 317.5711 38.094016 
L 320.64548 38.094016 
L 323.719861 38.094016 
L 326.794241 38.094016 
L 329.868621 38.094016 
L 332.943001 38.094016 
L 336.017381 38.094016 
L 339.091761 38.094016 
L 342.166142 38.094016 
L 345.240522 38.094016 
L 348.314902 38.094016 
L 351.389282 38.094016 
L 354.463662 38.094016 
L 357.538042 38.094016 
L 360.612423 38.094016 
L 363.686803 38.094016 
L 366.761183 38.094016 
L 369.835563 38.094016 
L 372.909943 38.094016 
" style="fill:none;stroke:#d62728;stroke-linecap:square;"/>
   </g>
   <g id="line2d_17">
    <path clip-path="url(#p1848186911)" d="M 68.546307 20.583636 
L 71.620687 20.583636 
L 74.695067 20.972756 
L 77.769447 21.361875 
L 80.843827 22.529234 
L 83.918208 24.085712 
L 86.992588 24.863951 
L 90.066968 25.64219 
L 93.141348 26.809549 
L 96.215728 27.198669 
L 99.290108 27.198669 
L 102.364489 27.587788 
L 105.438869 28.366027 
L 108.513249 29.533386 
L 111.587629 30.311625 
L 114.662009 30.311625 
L 117.736389 31.089864 
L 120.81077 32.257223 
L 123.88515 33.035462 
L 126.95953 33.035462 
L 130.03391 33.035462 
L 133.10829 33.813701 
L 136.18267 34.59194 
L 139.257051 36.148418 
L 142.331431 36.926657 
L 145.405811 38.483135 
L 148.480191 38.872255 
L 151.554571 39.261374 
L 154.628951 40.817853 
L 157.703332 42.374331 
L 160.777712 43.15257 
L 163.852092 43.15257 
L 166.926472 43.15257 
L 170.000852 43.15257 
L 173.075232 43.15257 
L 176.149613 43.15257 
L 179.223993 43.15257 
L 182.298373 43.15257 
L 185.372753 43.15257 
L 188.447133 43.15257 
L 191.521513 43.15257 
L 194.595894 43.15257 
L 197.670274 43.15257 
L 200.744654 43.15257 
L 203.819034 43.15257 
L 206.893414 43.15257 
L 209.967794 43.15257 
L 213.042175 43.15257 
L 216.116555 43.15257 
L 219.190935 43.15257 
L 222.265315 43.15257 
L 225.339695 43.15257 
L 228.414075 43.15257 
L 231.488456 43.15257 
L 234.562836 43.15257 
L 237.637216 43.15257 
L 240.711596 43.15257 
L 243.785976 43.15257 
L 246.860356 43.15257 
L 249.934737 43.15257 
L 253.009117 43.15257 
L 256.083497 43.15257 
L 259.157877 43.15257 
L 262.232257 43.15257 
L 265.306637 43.15257 
L 268.381018 43.15257 
L 271.455398 43.15257 
L 274.529778 43.15257 
L 277.604158 43.15257 
L 280.678538 43.15257 
L 283.752918 43.15257 
L 286.827299 43.15257 
L 289.901679 43.15257 
L 292.976059 43.15257 
L 296.050439 43.15257 
L 299.124819 43.15257 
L 302.199199 43.15257 
L 305.27358 43.15257 
L 308.34796 43.15257 
L 311.42234 43.15257 
L 314.49672 43.15257 
L 317.5711 43.15257 
L 320.64548 43.15257 
L 323.719861 43.15257 
L 326.794241 43.15257 
L 329.868621 43.15257 
L 332.943001 43.15257 
L 336.017381 43.15257 
L 339.091761 43.15257 
L 342.166142 43.15257 
L 345.240522 43.15257 
L 348.314902 43.15257 
L 351.389282 43.15257 
L 354.463662 43.15257 
L 357.538042 43.15257 
L 360.612423 43.15257 
L 363.686803 43.15257 
L 366.761183 43.15257 
L 369.835563 43.15257 
L 372.909943 43.15257 
" style="fill:none;stroke:#9467bd;stroke-linecap:square;"/>
   </g>
   <g id="line2d_18">
    <path clip-path="url(#p1848186911)" d="M 68.546307 20.583636 
L 71.620687 20.583636 
L 74.695067 20.972756 
L 77.769447 20.972756 
L 80.843827 21.750995 
L 83.918208 21.750995 
L 86.992588 21.750995 
L 90.066968 22.140115 
L 93.141348 22.140115 
L 96.215728 22.529234 
L 99.290108 22.529234 
L 102.364489 22.529234 
L 105.438869 22.918354 
L 108.513249 23.307473 
L 111.587629 23.696593 
L 114.662009 24.474832 
L 117.736389 25.253071 
L 120.81077 25.64219 
L 123.88515 26.420429 
L 126.95953 26.809549 
L 130.03391 26.809549 
L 133.10829 26.809549 
L 136.18267 27.198669 
L 139.257051 27.587788 
L 142.331431 27.976908 
L 145.405811 28.755147 
L 148.480191 29.922505 
L 151.554571 30.700744 
L 154.628951 31.089864 
L 157.703332 31.868103 
L 160.777712 31.868103 
L 163.852092 31.868103 
L 166.926472 31.868103 
L 170.000852 32.257223 
L 173.075232 32.257223 
L 176.149613 32.257223 
L 179.223993 32.257223 
L 182.298373 32.257223 
L 185.372753 32.257223 
L 188.447133 32.257223 
L 191.521513 32.257223 
L 194.595894 32.257223 
L 197.670274 32.257223 
L 200.744654 32.257223 
L 203.819034 32.257223 
L 206.893414 32.257223 
L 209.967794 32.257223 
L 213.042175 32.257223 
L 216.116555 32.257223 
L 219.190935 32.257223 
L 222.265315 32.257223 
L 225.339695 32.257223 
L 228.414075 32.257223 
L 231.488456 32.257223 
L 234.562836 32.257223 
L 237.637216 32.257223 
L 240.711596 32.257223 
L 243.785976 32.257223 
L 246.860356 32.257223 
L 249.934737 32.257223 
L 253.009117 32.257223 
L 256.083497 32.257223 
L 259.157877 32.257223 
L 262.232257 32.257223 
L 265.306637 32.257223 
L 268.381018 32.257223 
L 271.455398 32.257223 
L 274.529778 32.257223 
L 277.604158 32.257223 
L 280.678538 32.257223 
L 283.752918 32.257223 
L 286.827299 32.257223 
L 289.901679 32.257223 
L 292.976059 32.257223 
L 296.050439 32.257223 
L 299.124819 32.257223 
L 302.199199 32.257223 
L 305.27358 32.257223 
L 308.34796 32.257223 
L 311.42234 32.257223 
L 314.49672 32.257223 
L 317.5711 32.257223 
L 320.64548 32.257223 
L 323.719861 32.257223 
L 326.794241 32.257223 
L 329.868621 32.257223 
L 332.943001 32.257223 
L 336.017381 32.257223 
L 339.091761 32.257223 
L 342.166142 32.257223 
L 345.240522 32.257223 
L 348.314902 32.257223 
L 351.389282 32.257223 
L 354.463662 32.257223 
L 357.538042 32.257223 
L 360.612423 32.257223 
L 363.686803 32.257223 
L 366.761183 32.257223 
L 369.835563 32.257223 
L 372.909943 32.257223 
" style="fill:none;stroke:#8c564b;stroke-linecap:square;"/>
   </g>
   <g id="line2d_19">
    <path clip-path="url(#p1848186911)" d="M 68.546307 20.583636 
L 71.620687 20.583636 
L 74.695067 20.972756 
L 77.769447 20.972756 
L 80.843827 22.140115 
L 83.918208 22.140115 
L 86.992588 22.140115 
L 90.066968 22.140115 
L 93.141348 22.140115 
L 96.215728 22.140115 
L 99.290108 22.140115 
L 102.364489 22.140115 
L 105.438869 22.140115 
L 108.513249 22.140115 
L 111.587629 22.140115 
L 114.662009 22.140115 
L 117.736389 22.140115 
L 120.81077 22.140115 
L 123.88515 22.140115 
L 126.95953 22.140115 
L 130.03391 22.140115 
L 133.10829 22.140115 
L 136.18267 22.140115 
L 139.257051 22.140115 
L 142.331431 22.140115 
L 145.405811 22.140115 
L 148.480191 22.140115 
L 151.554571 22.140115 
L 154.628951 22.140115 
L 157.703332 22.140115 
L 160.777712 22.140115 
L 163.852092 22.140115 
L 166.926472 22.140115 
L 170.000852 22.140115 
L 173.075232 22.140115 
L 176.149613 22.140115 
L 179.223993 22.140115 
L 182.298373 22.140115 
L 185.372753 22.140115 
L 188.447133 22.140115 
L 191.521513 22.140115 
L 194.595894 22.140115 
L 197.670274 22.140115 
L 200.744654 22.140115 
L 203.819034 22.140115 
L 206.893414 22.140115 
L 209.967794 22.140115 
L 213.042175 22.140115 
L 216.116555 22.140115 
L 219.190935 22.140115 
L 222.265315 22.140115 
L 225.339695 22.140115 
L 228.414075 22.140115 
L 231.488456 22.140115 
L 234.562836 22.140115 
L 237.637216 22.140115 
L 240.711596 22.140115 
L 243.785976 22.140115 
L 246.860356 22.140115 
L 249.934737 22.140115 
L 253.009117 22.140115 
L 256.083497 22.140115 
L 259.157877 22.140115 
L 262.232257 22.140115 
L 265.306637 22.140115 
L 268.381018 22.140115 
L 271.455398 22.140115 
L 274.529778 22.140115 
L 277.604158 22.140115 
L 280.678538 22.140115 
L 283.752918 22.140115 
L 286.827299 22.140115 
L 289.901679 22.140115 
L 292.976059 22.140115 
L 296.050439 22.140115 
L 299.124819 22.140115 
L 302.199199 22.140115 
L 305.27358 22.140115 
L 308.34796 22.140115 
L 311.42234 22.140115 
L 314.49672 22.140115 
L 317.5711 22.140115 
L 320.64548 22.140115 
L 323.719861 22.140115 
L 326.794241 22.140115 
L 329.868621 22.140115 
L 332.943001 22.140115 
L 336.017381 22.140115 
L 339.091761 22.140115 
L 342.166142 22.140115 
L 345.240522 22.140115 
L 348.314902 22.140115 
L 351.389282 22.140115 
L 354.463662 22.140115 
L 357.538042 22.140115 
L 360.612423 22.140115 
L 363.686803 22.140115 
L 366.761183 22.140115 
L 369.835563 22.140115 
L 372.909943 22.140115 
" style="fill:none;stroke:#e377c2;stroke-linecap:square;"/>
   </g>
   <g id="patch_3">
    <path d="M 53.328125 228.14 
L 53.328125 10.7 
" style="fill:none;stroke:#000000;stroke-linecap:square;stroke-linejoin:miter;stroke-width:0.8;"/>
   </g>
   <g id="patch_4">
    <path d="M 388.128125 228.14 
L 388.128125 10.7 
" style="fill:none;stroke:#000000;stroke-linecap:square;stroke-linejoin:miter;stroke-width:0.8;"/>
   </g>
   <g id="patch_5">
    <path d="M 53.328125 228.14 
L 388.128125 228.14 
" style="fill:none;stroke:#000000;stroke-linecap:square;stroke-linejoin:miter;stroke-width:0.8;"/>
   </g>
   <g id="patch_6">
    <path d="M 53.328125 10.7 
L 388.128125 10.7 
" style="fill:none;stroke:#000000;stroke-linecap:square;stroke-linejoin:miter;stroke-width:0.8;"/>
   </g>
   <g id="legend_1">
    <g id="patch_7">
     <path d="M 406.868125 116.446875 
L 560.547812 116.446875 
Q 562.547812 116.446875 562.547812 114.446875 
L 562.547812 12.7 
Q 562.547812 10.7 560.547812 10.7 
L 406.868125 10.7 
Q 404.868125 10.7 404.868125 12.7 
L 404.868125 114.446875 
Q 404.868125 116.446875 406.868125 116.446875 
z
" style="fill:#ffffff;opacity:0.8;stroke:#cccccc;stroke-linejoin:miter;"/>
    </g>
    <g id="line2d_20">
     <path d="M 408.868125 18.798437 
L 428.868125 18.798437 
" style="fill:none;stroke:#1f77b4;stroke-linecap:square;"/>
    </g>
    <g id="line2d_21"/>
    <g id="text_15">
     <!-- Vaccination Rate = 0.75 -->
     <defs>
      <path d="M 28.609375 0 
L 0.78125 72.90625 
L 11.078125 72.90625 
L 34.1875 11.53125 
L 57.328125 72.90625 
L 67.578125 72.90625 
L 39.796875 0 
z
" id="DejaVuSans-86"/>
      <path d="M 34.28125 27.484375 
Q 23.390625 27.484375 19.1875 25 
Q 14.984375 22.515625 14.984375 16.5 
Q 14.984375 11.71875 18.140625 8.90625 
Q 21.296875 6.109375 26.703125 6.109375 
Q 34.1875 6.109375 38.703125 11.40625 
Q 43.21875 16.703125 43.21875 25.484375 
L 43.21875 27.484375 
z
M 52.203125 31.203125 
L 52.203125 0 
L 43.21875 0 
L 43.21875 8.296875 
Q 40.140625 3.328125 35.546875 0.953125 
Q 30.953125 -1.421875 24.3125 -1.421875 
Q 15.921875 -1.421875 10.953125 3.296875 
Q 6 8.015625 6 15.921875 
Q 6 25.140625 12.171875 29.828125 
Q 18.359375 34.515625 30.609375 34.515625 
L 43.21875 34.515625 
L 43.21875 35.40625 
Q 43.21875 41.609375 39.140625 45 
Q 35.0625 48.390625 27.6875 48.390625 
Q 23 48.390625 18.546875 47.265625 
Q 14.109375 46.140625 10.015625 43.890625 
L 10.015625 52.203125 
Q 14.9375 54.109375 19.578125 55.046875 
Q 24.21875 56 28.609375 56 
Q 40.484375 56 46.34375 49.84375 
Q 52.203125 43.703125 52.203125 31.203125 
z
" id="DejaVuSans-97"/>
      <path d="M 48.78125 52.59375 
L 48.78125 44.1875 
Q 44.96875 46.296875 41.140625 47.34375 
Q 37.3125 48.390625 33.40625 48.390625 
Q 24.65625 48.390625 19.8125 42.84375 
Q 14.984375 37.3125 14.984375 27.296875 
Q 14.984375 17.28125 19.8125 11.734375 
Q 24.65625 6.203125 33.40625 6.203125 
Q 37.3125 6.203125 41.140625 7.25 
Q 44.96875 8.296875 48.78125 10.40625 
L 48.78125 2.09375 
Q 45.015625 0.34375 40.984375 -0.53125 
Q 36.96875 -1.421875 32.421875 -1.421875 
Q 20.0625 -1.421875 12.78125 6.34375 
Q 5.515625 14.109375 5.515625 27.296875 
Q 5.515625 40.671875 12.859375 48.328125 
Q 20.21875 56 33.015625 56 
Q 37.15625 56 41.109375 55.140625 
Q 45.0625 54.296875 48.78125 52.59375 
z
" id="DejaVuSans-99"/>
      <path d="M 44.390625 34.1875 
Q 47.5625 33.109375 50.5625 29.59375 
Q 53.5625 26.078125 56.59375 19.921875 
L 66.609375 0 
L 56 0 
L 46.6875 18.703125 
Q 43.0625 26.03125 39.671875 28.421875 
Q 36.28125 30.8125 30.421875 30.8125 
L 19.671875 30.8125 
L 19.671875 0 
L 9.8125 0 
L 9.8125 72.90625 
L 32.078125 72.90625 
Q 44.578125 72.90625 50.734375 67.671875 
Q 56.890625 62.453125 56.890625 51.90625 
Q 56.890625 45.015625 53.6875 40.46875 
Q 50.484375 35.9375 44.390625 34.1875 
z
M 19.671875 64.796875 
L 19.671875 38.921875 
L 32.078125 38.921875 
Q 39.203125 38.921875 42.84375 42.21875 
Q 46.484375 45.515625 46.484375 51.90625 
Q 46.484375 58.296875 42.84375 61.546875 
Q 39.203125 64.796875 32.078125 64.796875 
z
" id="DejaVuSans-82"/>
      <path d="M 10.59375 45.40625 
L 73.1875 45.40625 
L 73.1875 37.203125 
L 10.59375 37.203125 
z
M 10.59375 25.484375 
L 73.1875 25.484375 
L 73.1875 17.1875 
L 10.59375 17.1875 
z
" id="DejaVuSans-61"/>
      <path d="M 10.6875 12.40625 
L 21 12.40625 
L 21 0 
L 10.6875 0 
z
" id="DejaVuSans-46"/>
      <path d="M 8.203125 72.90625 
L 55.078125 72.90625 
L 55.078125 68.703125 
L 28.609375 0 
L 18.3125 0 
L 43.21875 64.59375 
L 8.203125 64.59375 
z
" id="DejaVuSans-55"/>
     </defs>
     <g transform="translate(436.868125 22.298437)scale(0.1 -0.1)">
      <use xlink:href="#DejaVuSans-86"/>
      <use x="68.298828" xlink:href="#DejaVuSans-97"/>
      <use x="129.578125" xlink:href="#DejaVuSans-99"/>
      <use x="184.558594" xlink:href="#DejaVuSans-99"/>
      <use x="239.539062" xlink:href="#DejaVuSans-105"/>
      <use x="267.322266" xlink:href="#DejaVuSans-110"/>
      <use x="330.701172" xlink:href="#DejaVuSans-97"/>
      <use x="391.980469" xlink:href="#DejaVuSans-116"/>
      <use x="431.189453" xlink:href="#DejaVuSans-105"/>
      <use x="458.972656" xlink:href="#DejaVuSans-111"/>
      <use x="520.154297" xlink:href="#DejaVuSans-110"/>
      <use x="583.533203" xlink:href="#DejaVuSans-32"/>
      <use x="615.320312" xlink:href="#DejaVuSans-82"/>
      <use x="684.771484" xlink:href="#DejaVuSans-97"/>
      <use x="746.050781" xlink:href="#DejaVuSans-116"/>
      <use x="785.259766" xlink:href="#DejaVuSans-101"/>
      <use x="846.783203" xlink:href="#DejaVuSans-32"/>
      <use x="878.570312" xlink:href="#DejaVuSans-61"/>
      <use x="962.359375" xlink:href="#DejaVuSans-32"/>
      <use x="994.146484" xlink:href="#DejaVuSans-48"/>
      <use x="1057.769531" xlink:href="#DejaVuSans-46"/>
      <use x="1089.556641" xlink:href="#DejaVuSans-55"/>
      <use x="1153.179688" xlink:href="#DejaVuSans-53"/>
     </g>
    </g>
    <g id="line2d_22">
     <path d="M 408.868125 33.476562 
L 428.868125 33.476562 
" style="fill:none;stroke:#ff7f0e;stroke-linecap:square;"/>
    </g>
    <g id="line2d_23"/>
    <g id="text_16">
     <!-- Vaccination Rate = 0.79 -->
     <defs>
      <path d="M 10.984375 1.515625 
L 10.984375 10.5 
Q 14.703125 8.734375 18.5 7.8125 
Q 22.3125 6.890625 25.984375 6.890625 
Q 35.75 6.890625 40.890625 13.453125 
Q 46.046875 20.015625 46.78125 33.40625 
Q 43.953125 29.203125 39.59375 26.953125 
Q 35.25 24.703125 29.984375 24.703125 
Q 19.046875 24.703125 12.671875 31.3125 
Q 6.296875 37.9375 6.296875 49.421875 
Q 6.296875 60.640625 12.9375 67.421875 
Q 19.578125 74.21875 30.609375 74.21875 
Q 43.265625 74.21875 49.921875 64.515625 
Q 56.59375 54.828125 56.59375 36.375 
Q 56.59375 19.140625 48.40625 8.859375 
Q 40.234375 -1.421875 26.421875 -1.421875 
Q 22.703125 -1.421875 18.890625 -0.6875 
Q 15.09375 0.046875 10.984375 1.515625 
z
M 30.609375 32.421875 
Q 37.25 32.421875 41.125 36.953125 
Q 45.015625 41.5 45.015625 49.421875 
Q 45.015625 57.28125 41.125 61.84375 
Q 37.25 66.40625 30.609375 66.40625 
Q 23.96875 66.40625 20.09375 61.84375 
Q 16.21875 57.28125 16.21875 49.421875 
Q 16.21875 41.5 20.09375 36.953125 
Q 23.96875 32.421875 30.609375 32.421875 
z
" id="DejaVuSans-57"/>
     </defs>
     <g transform="translate(436.868125 36.976562)scale(0.1 -0.1)">
      <use xlink:href="#DejaVuSans-86"/>
      <use x="68.298828" xlink:href="#DejaVuSans-97"/>
      <use x="129.578125" xlink:href="#DejaVuSans-99"/>
      <use x="184.558594" xlink:href="#DejaVuSans-99"/>
      <use x="239.539062" xlink:href="#DejaVuSans-105"/>
      <use x="267.322266" xlink:href="#DejaVuSans-110"/>
      <use x="330.701172" xlink:href="#DejaVuSans-97"/>
      <use x="391.980469" xlink:href="#DejaVuSans-116"/>
      <use x="431.189453" xlink:href="#DejaVuSans-105"/>
      <use x="458.972656" xlink:href="#DejaVuSans-111"/>
      <use x="520.154297" xlink:href="#DejaVuSans-110"/>
      <use x="583.533203" xlink:href="#DejaVuSans-32"/>
      <use x="615.320312" xlink:href="#DejaVuSans-82"/>
      <use x="684.771484" xlink:href="#DejaVuSans-97"/>
      <use x="746.050781" xlink:href="#DejaVuSans-116"/>
      <use x="785.259766" xlink:href="#DejaVuSans-101"/>
      <use x="846.783203" xlink:href="#DejaVuSans-32"/>
      <use x="878.570312" xlink:href="#DejaVuSans-61"/>
      <use x="962.359375" xlink:href="#DejaVuSans-32"/>
      <use x="994.146484" xlink:href="#DejaVuSans-48"/>
      <use x="1057.769531" xlink:href="#DejaVuSans-46"/>
      <use x="1089.556641" xlink:href="#DejaVuSans-55"/>
      <use x="1153.179688" xlink:href="#DejaVuSans-57"/>
     </g>
    </g>
    <g id="line2d_24">
     <path d="M 408.868125 48.154687 
L 428.868125 48.154687 
" style="fill:none;stroke:#2ca02c;stroke-linecap:square;"/>
    </g>
    <g id="line2d_25"/>
    <g id="text_17">
     <!-- Vaccination Rate = 0.83 -->
     <g transform="translate(436.868125 51.654687)scale(0.1 -0.1)">
      <use xlink:href="#DejaVuSans-86"/>
      <use x="68.298828" xlink:href="#DejaVuSans-97"/>
      <use x="129.578125" xlink:href="#DejaVuSans-99"/>
      <use x="184.558594" xlink:href="#DejaVuSans-99"/>
      <use x="239.539062" xlink:href="#DejaVuSans-105"/>
      <use x="267.322266" xlink:href="#DejaVuSans-110"/>
      <use x="330.701172" xlink:href="#DejaVuSans-97"/>
      <use x="391.980469" xlink:href="#DejaVuSans-116"/>
      <use x="431.189453" xlink:href="#DejaVuSans-105"/>
      <use x="458.972656" xlink:href="#DejaVuSans-111"/>
      <use x="520.154297" xlink:href="#DejaVuSans-110"/>
      <use x="583.533203" xlink:href="#DejaVuSans-32"/>
      <use x="615.320312" xlink:href="#DejaVuSans-82"/>
      <use x="684.771484" xlink:href="#DejaVuSans-97"/>
      <use x="746.050781" xlink:href="#DejaVuSans-116"/>
      <use x="785.259766" xlink:href="#DejaVuSans-101"/>
      <use x="846.783203" xlink:href="#DejaVuSans-32"/>
      <use x="878.570312" xlink:href="#DejaVuSans-61"/>
      <use x="962.359375" xlink:href="#DejaVuSans-32"/>
      <use x="994.146484" xlink:href="#DejaVuSans-48"/>
      <use x="1057.769531" xlink:href="#DejaVuSans-46"/>
      <use x="1089.556641" xlink:href="#DejaVuSans-56"/>
      <use x="1153.179688" xlink:href="#DejaVuSans-51"/>
     </g>
    </g>
    <g id="line2d_26">
     <path d="M 408.868125 62.832812 
L 428.868125 62.832812 
" style="fill:none;stroke:#d62728;stroke-linecap:square;"/>
    </g>
    <g id="line2d_27"/>
    <g id="text_18">
     <!-- Vaccination Rate = 0.88 -->
     <g transform="translate(436.868125 66.332812)scale(0.1 -0.1)">
      <use xlink:href="#DejaVuSans-86"/>
      <use x="68.298828" xlink:href="#DejaVuSans-97"/>
      <use x="129.578125" xlink:href="#DejaVuSans-99"/>
      <use x="184.558594" xlink:href="#DejaVuSans-99"/>
      <use x="239.539062" xlink:href="#DejaVuSans-105"/>
      <use x="267.322266" xlink:href="#DejaVuSans-110"/>
      <use x="330.701172" xlink:href="#DejaVuSans-97"/>
      <use x="391.980469" xlink:href="#DejaVuSans-116"/>
      <use x="431.189453" xlink:href="#DejaVuSans-105"/>
      <use x="458.972656" xlink:href="#DejaVuSans-111"/>
      <use x="520.154297" xlink:href="#DejaVuSans-110"/>
      <use x="583.533203" xlink:href="#DejaVuSans-32"/>
      <use x="615.320312" xlink:href="#DejaVuSans-82"/>
      <use x="684.771484" xlink:href="#DejaVuSans-97"/>
      <use x="746.050781" xlink:href="#DejaVuSans-116"/>
      <use x="785.259766" xlink:href="#DejaVuSans-101"/>
      <use x="846.783203" xlink:href="#DejaVuSans-32"/>
      <use x="878.570312" xlink:href="#DejaVuSans-61"/>
      <use x="962.359375" xlink:href="#DejaVuSans-32"/>
      <use x="994.146484" xlink:href="#DejaVuSans-48"/>
      <use x="1057.769531" xlink:href="#DejaVuSans-46"/>
      <use x="1089.556641" xlink:href="#DejaVuSans-56"/>
      <use x="1153.179688" xlink:href="#DejaVuSans-56"/>
     </g>
    </g>
    <g id="line2d_28">
     <path d="M 408.868125 77.510937 
L 428.868125 77.510937 
" style="fill:none;stroke:#9467bd;stroke-linecap:square;"/>
    </g>
    <g id="line2d_29"/>
    <g id="text_19">
     <!-- Vaccination Rate = 0.92 -->
     <g transform="translate(436.868125 81.010937)scale(0.1 -0.1)">
      <use xlink:href="#DejaVuSans-86"/>
      <use x="68.298828" xlink:href="#DejaVuSans-97"/>
      <use x="129.578125" xlink:href="#DejaVuSans-99"/>
      <use x="184.558594" xlink:href="#DejaVuSans-99"/>
      <use x="239.539062" xlink:href="#DejaVuSans-105"/>
      <use x="267.322266" xlink:href="#DejaVuSans-110"/>
      <use x="330.701172" xlink:href="#DejaVuSans-97"/>
      <use x="391.980469" xlink:href="#DejaVuSans-116"/>
      <use x="431.189453" xlink:href="#DejaVuSans-105"/>
      <use x="458.972656" xlink:href="#DejaVuSans-111"/>
      <use x="520.154297" xlink:href="#DejaVuSans-110"/>
      <use x="583.533203" xlink:href="#DejaVuSans-32"/>
      <use x="615.320312" xlink:href="#DejaVuSans-82"/>
      <use x="684.771484" xlink:href="#DejaVuSans-97"/>
      <use x="746.050781" xlink:href="#DejaVuSans-116"/>
      <use x="785.259766" xlink:href="#DejaVuSans-101"/>
      <use x="846.783203" xlink:href="#DejaVuSans-32"/>
      <use x="878.570312" xlink:href="#DejaVuSans-61"/>
      <use x="962.359375" xlink:href="#DejaVuSans-32"/>
      <use x="994.146484" xlink:href="#DejaVuSans-48"/>
      <use x="1057.769531" xlink:href="#DejaVuSans-46"/>
      <use x="1089.556641" xlink:href="#DejaVuSans-57"/>
      <use x="1153.179688" xlink:href="#DejaVuSans-50"/>
     </g>
    </g>
    <g id="line2d_30">
     <path d="M 408.868125 92.189062 
L 428.868125 92.189062 
" style="fill:none;stroke:#8c564b;stroke-linecap:square;"/>
    </g>
    <g id="line2d_31"/>
    <g id="text_20">
     <!-- Vaccination Rate = 0.96 -->
     <g transform="translate(436.868125 95.689062)scale(0.1 -0.1)">
      <use xlink:href="#DejaVuSans-86"/>
      <use x="68.298828" xlink:href="#DejaVuSans-97"/>
      <use x="129.578125" xlink:href="#DejaVuSans-99"/>
      <use x="184.558594" xlink:href="#DejaVuSans-99"/>
      <use x="239.539062" xlink:href="#DejaVuSans-105"/>
      <use x="267.322266" xlink:href="#DejaVuSans-110"/>
      <use x="330.701172" xlink:href="#DejaVuSans-97"/>
      <use x="391.980469" xlink:href="#DejaVuSans-116"/>
      <use x="431.189453" xlink:href="#DejaVuSans-105"/>
      <use x="458.972656" xlink:href="#DejaVuSans-111"/>
      <use x="520.154297" xlink:href="#DejaVuSans-110"/>
      <use x="583.533203" xlink:href="#DejaVuSans-32"/>
      <use x="615.320312" xlink:href="#DejaVuSans-82"/>
      <use x="684.771484" xlink:href="#DejaVuSans-97"/>
      <use x="746.050781" xlink:href="#DejaVuSans-116"/>
      <use x="785.259766" xlink:href="#DejaVuSans-101"/>
      <use x="846.783203" xlink:href="#DejaVuSans-32"/>
      <use x="878.570312" xlink:href="#DejaVuSans-61"/>
      <use x="962.359375" xlink:href="#DejaVuSans-32"/>
      <use x="994.146484" xlink:href="#DejaVuSans-48"/>
      <use x="1057.769531" xlink:href="#DejaVuSans-46"/>
      <use x="1089.556641" xlink:href="#DejaVuSans-57"/>
      <use x="1153.179688" xlink:href="#DejaVuSans-54"/>
     </g>
    </g>
    <g id="line2d_32">
     <path d="M 408.868125 106.867187 
L 428.868125 106.867187 
" style="fill:none;stroke:#e377c2;stroke-linecap:square;"/>
    </g>
    <g id="line2d_33"/>
    <g id="text_21">
     <!-- Vaccination Rate = 1.00 -->
     <g transform="translate(436.868125 110.367187)scale(0.1 -0.1)">
      <use xlink:href="#DejaVuSans-86"/>
      <use x="68.298828" xlink:href="#DejaVuSans-97"/>
      <use x="129.578125" xlink:href="#DejaVuSans-99"/>
      <use x="184.558594" xlink:href="#DejaVuSans-99"/>
      <use x="239.539062" xlink:href="#DejaVuSans-105"/>
      <use x="267.322266" xlink:href="#DejaVuSans-110"/>
      <use x="330.701172" xlink:href="#DejaVuSans-97"/>
      <use x="391.980469" xlink:href="#DejaVuSans-116"/>
      <use x="431.189453" xlink:href="#DejaVuSans-105"/>
      <use x="458.972656" xlink:href="#DejaVuSans-111"/>
      <use x="520.154297" xlink:href="#DejaVuSans-110"/>
      <use x="583.533203" xlink:href="#DejaVuSans-32"/>
      <use x="615.320312" xlink:href="#DejaVuSans-82"/>
      <use x="684.771484" xlink:href="#DejaVuSans-97"/>
      <use x="746.050781" xlink:href="#DejaVuSans-116"/>
      <use x="785.259766" xlink:href="#DejaVuSans-101"/>
      <use x="846.783203" xlink:href="#DejaVuSans-32"/>
      <use x="878.570312" xlink:href="#DejaVuSans-61"/>
      <use x="962.359375" xlink:href="#DejaVuSans-32"/>
      <use x="994.146484" xlink:href="#DejaVuSans-49"/>
      <use x="1057.769531" xlink:href="#DejaVuSans-46"/>
      <use x="1089.556641" xlink:href="#DejaVuSans-48"/>
      <use x="1153.179688" xlink:href="#DejaVuSans-48"/>
     </g>
    </g>
   </g>
  </g>
 </g>
 <defs>
  <clipPath id="p1848186911">
   <rect height="217.44" width="334.8" x="53.328125" y="10.7"/>
  </clipPath>
 </defs>
</svg>
