<?xml version="1.0" encoding="utf-8" standalone="no"?>
<!DOCTYPE svg PUBLIC "-//W3C//DTD SVG 1.1//EN"
  "http://www.w3.org/Graphics/SVG/1.1/DTD/svg11.dtd">
<!-- Created with matplotlib (https://matplotlib.org/) -->
<svg height="265.69625pt" version="1.1" viewBox="0 0 569.747812 265.69625" width="569.747812pt" xmlns="http://www.w3.org/2000/svg" xmlns:xlink="http://www.w3.org/1999/xlink">
 <defs>
  <style type="text/css">
*{stroke-linecap:butt;stroke-linejoin:round;}
  </style>
 </defs>
 <g id="figure_1">
  <g id="patch_1">
   <path d="M 0 265.69625 
L 569.747812 265.69625 
L 569.747812 0 
L 0 0 
z
" style="fill:#ffffff;"/>
  </g>
  <g id="axes_1">
   <g id="patch_2">
    <path d="M 53.328125 228.14 
L 388.128125 228.14 
L 388.128125 10.7 
L 53.328125 10.7 
z
" style="fill:#ffffff;"/>
   </g>
   <g id="matplotlib.axis_1">
    <g id="xtick_1">
     <g id="line2d_1">
      <defs>
       <path d="M 0 0 
L 0 3.5 
" id="m2425dfd479" style="stroke:#000000;stroke-width:0.8;"/>
      </defs>
      <g>
       <use style="stroke:#000000;stroke-width:0.8;" x="68.546307" xlink:href="#m2425dfd479" y="228.14"/>
      </g>
     </g>
     <g id="text_1">
      <!-- 0 -->
      <defs>
       <path d="M 31.78125 66.40625 
Q 24.171875 66.40625 20.328125 58.90625 
Q 16.5 51.421875 16.5 36.375 
Q 16.5 21.390625 20.328125 13.890625 
Q 24.171875 6.390625 31.78125 6.390625 
Q 39.453125 6.390625 43.28125 13.890625 
Q 47.125 21.390625 47.125 36.375 
Q 47.125 51.421875 43.28125 58.90625 
Q 39.453125 66.40625 31.78125 66.40625 
z
M 31.78125 74.21875 
Q 44.046875 74.21875 50.515625 64.515625 
Q 56.984375 54.828125 56.984375 36.375 
Q 56.984375 17.96875 50.515625 8.265625 
Q 44.046875 -1.421875 31.78125 -1.421875 
Q 19.53125 -1.421875 13.0625 8.265625 
Q 6.59375 17.96875 6.59375 36.375 
Q 6.59375 54.828125 13.0625 64.515625 
Q 19.53125 74.21875 31.78125 74.21875 
z
" id="DejaVuSans-48"/>
      </defs>
      <g transform="translate(65.365057 242.738437)scale(0.1 -0.1)">
       <use xlink:href="#DejaVuSans-48"/>
      </g>
     </g>
    </g>
    <g id="xtick_2">
     <g id="line2d_2">
      <g>
       <use style="stroke:#000000;stroke-width:0.8;" x="130.03391" xlink:href="#m2425dfd479" y="228.14"/>
      </g>
     </g>
     <g id="text_2">
      <!-- 20 -->
      <defs>
       <path d="M 19.1875 8.296875 
L 53.609375 8.296875 
L 53.609375 0 
L 7.328125 0 
L 7.328125 8.296875 
Q 12.9375 14.109375 22.625 23.890625 
Q 32.328125 33.6875 34.8125 36.53125 
Q 39.546875 41.84375 41.421875 45.53125 
Q 43.3125 49.21875 43.3125 52.78125 
Q 43.3125 58.59375 39.234375 62.25 
Q 35.15625 65.921875 28.609375 65.921875 
Q 23.96875 65.921875 18.8125 64.3125 
Q 13.671875 62.703125 7.8125 59.421875 
L 7.8125 69.390625 
Q 13.765625 71.78125 18.9375 73 
Q 24.125 74.21875 28.421875 74.21875 
Q 39.75 74.21875 46.484375 68.546875 
Q 53.21875 62.890625 53.21875 53.421875 
Q 53.21875 48.921875 51.53125 44.890625 
Q 49.859375 40.875 45.40625 35.40625 
Q 44.1875 33.984375 37.640625 27.21875 
Q 31.109375 20.453125 19.1875 8.296875 
z
" id="DejaVuSans-50"/>
      </defs>
      <g transform="translate(123.67141 242.738437)scale(0.1 -0.1)">
       <use xlink:href="#DejaVuSans-50"/>
       <use x="63.623047" xlink:href="#DejaVuSans-48"/>
      </g>
     </g>
    </g>
    <g id="xtick_3">
     <g id="line2d_3">
      <g>
       <use style="stroke:#000000;stroke-width:0.8;" x="191.521513" xlink:href="#m2425dfd479" y="228.14"/>
      </g>
     </g>
     <g id="text_3">
      <!-- 40 -->
      <defs>
       <path d="M 37.796875 64.3125 
L 12.890625 25.390625 
L 37.796875 25.390625 
z
M 35.203125 72.90625 
L 47.609375 72.90625 
L 47.609375 25.390625 
L 58.015625 25.390625 
L 58.015625 17.1875 
L 47.609375 17.1875 
L 47.609375 0 
L 37.796875 0 
L 37.796875 17.1875 
L 4.890625 17.1875 
L 4.890625 26.703125 
z
" id="DejaVuSans-52"/>
      </defs>
      <g transform="translate(185.159013 242.738437)scale(0.1 -0.1)">
       <use xlink:href="#DejaVuSans-52"/>
       <use x="63.623047" xlink:href="#DejaVuSans-48"/>
      </g>
     </g>
    </g>
    <g id="xtick_4">
     <g id="line2d_4">
      <g>
       <use style="stroke:#000000;stroke-width:0.8;" x="253.009117" xlink:href="#m2425dfd479" y="228.14"/>
      </g>
     </g>
     <g id="text_4">
      <!-- 60 -->
      <defs>
       <path d="M 33.015625 40.375 
Q 26.375 40.375 22.484375 35.828125 
Q 18.609375 31.296875 18.609375 23.390625 
Q 18.609375 15.53125 22.484375 10.953125 
Q 26.375 6.390625 33.015625 6.390625 
Q 39.65625 6.390625 43.53125 10.953125 
Q 47.40625 15.53125 47.40625 23.390625 
Q 47.40625 31.296875 43.53125 35.828125 
Q 39.65625 40.375 33.015625 40.375 
z
M 52.59375 71.296875 
L 52.59375 62.3125 
Q 48.875 64.0625 45.09375 64.984375 
Q 41.3125 65.921875 37.59375 65.921875 
Q 27.828125 65.921875 22.671875 59.328125 
Q 17.53125 52.734375 16.796875 39.40625 
Q 19.671875 43.65625 24.015625 45.921875 
Q 28.375 48.1875 33.59375 48.1875 
Q 44.578125 48.1875 50.953125 41.515625 
Q 57.328125 34.859375 57.328125 23.390625 
Q 57.328125 12.15625 50.6875 5.359375 
Q 44.046875 -1.421875 33.015625 -1.421875 
Q 20.359375 -1.421875 13.671875 8.265625 
Q 6.984375 17.96875 6.984375 36.375 
Q 6.984375 53.65625 15.1875 63.9375 
Q 23.390625 74.21875 37.203125 74.21875 
Q 40.921875 74.21875 44.703125 73.484375 
Q 48.484375 72.75 52.59375 71.296875 
z
" id="DejaVuSans-54"/>
      </defs>
      <g transform="translate(246.646617 242.738437)scale(0.1 -0.1)">
       <use xlink:href="#DejaVuSans-54"/>
       <use x="63.623047" xlink:href="#DejaVuSans-48"/>
      </g>
     </g>
    </g>
    <g id="xtick_5">
     <g id="line2d_5">
      <g>
       <use style="stroke:#000000;stroke-width:0.8;" x="314.49672" xlink:href="#m2425dfd479" y="228.14"/>
      </g>
     </g>
     <g id="text_5">
      <!-- 80 -->
      <defs>
       <path d="M 31.78125 34.625 
Q 24.75 34.625 20.71875 30.859375 
Q 16.703125 27.09375 16.703125 20.515625 
Q 16.703125 13.921875 20.71875 10.15625 
Q 24.75 6.390625 31.78125 6.390625 
Q 38.8125 6.390625 42.859375 10.171875 
Q 46.921875 13.96875 46.921875 20.515625 
Q 46.921875 27.09375 42.890625 30.859375 
Q 38.875 34.625 31.78125 34.625 
z
M 21.921875 38.8125 
Q 15.578125 40.375 12.03125 44.71875 
Q 8.5 49.078125 8.5 55.328125 
Q 8.5 64.0625 14.71875 69.140625 
Q 20.953125 74.21875 31.78125 74.21875 
Q 42.671875 74.21875 48.875 69.140625 
Q 55.078125 64.0625 55.078125 55.328125 
Q 55.078125 49.078125 51.53125 44.71875 
Q 48 40.375 41.703125 38.8125 
Q 48.828125 37.15625 52.796875 32.3125 
Q 56.78125 27.484375 56.78125 20.515625 
Q 56.78125 9.90625 50.3125 4.234375 
Q 43.84375 -1.421875 31.78125 -1.421875 
Q 19.734375 -1.421875 13.25 4.234375 
Q 6.78125 9.90625 6.78125 20.515625 
Q 6.78125 27.484375 10.78125 32.3125 
Q 14.796875 37.15625 21.921875 38.8125 
z
M 18.3125 54.390625 
Q 18.3125 48.734375 21.84375 45.5625 
Q 25.390625 42.390625 31.78125 42.390625 
Q 38.140625 42.390625 41.71875 45.5625 
Q 45.3125 48.734375 45.3125 54.390625 
Q 45.3125 60.0625 41.71875 63.234375 
Q 38.140625 66.40625 31.78125 66.40625 
Q 25.390625 66.40625 21.84375 63.234375 
Q 18.3125 60.0625 18.3125 54.390625 
z
" id="DejaVuSans-56"/>
      </defs>
      <g transform="translate(308.13422 242.738437)scale(0.1 -0.1)">
       <use xlink:href="#DejaVuSans-56"/>
       <use x="63.623047" xlink:href="#DejaVuSans-48"/>
      </g>
     </g>
    </g>
    <g id="xtick_6">
     <g id="line2d_6">
      <g>
       <use style="stroke:#000000;stroke-width:0.8;" x="375.984323" xlink:href="#m2425dfd479" y="228.14"/>
      </g>
     </g>
     <g id="text_6">
      <!-- 100 -->
      <defs>
       <path d="M 12.40625 8.296875 
L 28.515625 8.296875 
L 28.515625 63.921875 
L 10.984375 60.40625 
L 10.984375 69.390625 
L 28.421875 72.90625 
L 38.28125 72.90625 
L 38.28125 8.296875 
L 54.390625 8.296875 
L 54.390625 0 
L 12.40625 0 
z
" id="DejaVuSans-49"/>
      </defs>
      <g transform="translate(366.440573 242.738437)scale(0.1 -0.1)">
       <use xlink:href="#DejaVuSans-49"/>
       <use x="63.623047" xlink:href="#DejaVuSans-48"/>
       <use x="127.246094" xlink:href="#DejaVuSans-48"/>
      </g>
     </g>
    </g>
    <g id="text_7">
     <!-- Time Steps -->
     <defs>
      <path d="M -0.296875 72.90625 
L 61.375 72.90625 
L 61.375 64.59375 
L 35.5 64.59375 
L 35.5 0 
L 25.59375 0 
L 25.59375 64.59375 
L -0.296875 64.59375 
z
" id="DejaVuSans-84"/>
      <path d="M 9.421875 54.6875 
L 18.40625 54.6875 
L 18.40625 0 
L 9.421875 0 
z
M 9.421875 75.984375 
L 18.40625 75.984375 
L 18.40625 64.59375 
L 9.421875 64.59375 
z
" id="DejaVuSans-105"/>
      <path d="M 52 44.1875 
Q 55.375 50.25 60.0625 53.125 
Q 64.75 56 71.09375 56 
Q 79.640625 56 84.28125 50.015625 
Q 88.921875 44.046875 88.921875 33.015625 
L 88.921875 0 
L 79.890625 0 
L 79.890625 32.71875 
Q 79.890625 40.578125 77.09375 44.375 
Q 74.3125 48.1875 68.609375 48.1875 
Q 61.625 48.1875 57.5625 43.546875 
Q 53.515625 38.921875 53.515625 30.90625 
L 53.515625 0 
L 44.484375 0 
L 44.484375 32.71875 
Q 44.484375 40.625 41.703125 44.40625 
Q 38.921875 48.1875 33.109375 48.1875 
Q 26.21875 48.1875 22.15625 43.53125 
Q 18.109375 38.875 18.109375 30.90625 
L 18.109375 0 
L 9.078125 0 
L 9.078125 54.6875 
L 18.109375 54.6875 
L 18.109375 46.1875 
Q 21.1875 51.21875 25.484375 53.609375 
Q 29.78125 56 35.6875 56 
Q 41.65625 56 45.828125 52.96875 
Q 50 49.953125 52 44.1875 
z
" id="DejaVuSans-109"/>
      <path d="M 56.203125 29.59375 
L 56.203125 25.203125 
L 14.890625 25.203125 
Q 15.484375 15.921875 20.484375 11.0625 
Q 25.484375 6.203125 34.421875 6.203125 
Q 39.59375 6.203125 44.453125 7.46875 
Q 49.3125 8.734375 54.109375 11.28125 
L 54.109375 2.78125 
Q 49.265625 0.734375 44.1875 -0.34375 
Q 39.109375 -1.421875 33.890625 -1.421875 
Q 20.796875 -1.421875 13.15625 6.1875 
Q 5.515625 13.8125 5.515625 26.8125 
Q 5.515625 40.234375 12.765625 48.109375 
Q 20.015625 56 32.328125 56 
Q 43.359375 56 49.78125 48.890625 
Q 56.203125 41.796875 56.203125 29.59375 
z
M 47.21875 32.234375 
Q 47.125 39.59375 43.09375 43.984375 
Q 39.0625 48.390625 32.421875 48.390625 
Q 24.90625 48.390625 20.390625 44.140625 
Q 15.875 39.890625 15.1875 32.171875 
z
" id="DejaVuSans-101"/>
      <path id="DejaVuSans-32"/>
      <path d="M 53.515625 70.515625 
L 53.515625 60.890625 
Q 47.90625 63.578125 42.921875 64.890625 
Q 37.9375 66.21875 33.296875 66.21875 
Q 25.25 66.21875 20.875 63.09375 
Q 16.5 59.96875 16.5 54.203125 
Q 16.5 49.359375 19.40625 46.890625 
Q 22.3125 44.4375 30.421875 42.921875 
L 36.375 41.703125 
Q 47.40625 39.59375 52.65625 34.296875 
Q 57.90625 29 57.90625 20.125 
Q 57.90625 9.515625 50.796875 4.046875 
Q 43.703125 -1.421875 29.984375 -1.421875 
Q 24.8125 -1.421875 18.96875 -0.25 
Q 13.140625 0.921875 6.890625 3.21875 
L 6.890625 13.375 
Q 12.890625 10.015625 18.65625 8.296875 
Q 24.421875 6.59375 29.984375 6.59375 
Q 38.421875 6.59375 43.015625 9.90625 
Q 47.609375 13.234375 47.609375 19.390625 
Q 47.609375 24.75 44.3125 27.78125 
Q 41.015625 30.8125 33.5 32.328125 
L 27.484375 33.5 
Q 16.453125 35.6875 11.515625 40.375 
Q 6.59375 45.0625 6.59375 53.421875 
Q 6.59375 63.09375 13.40625 68.65625 
Q 20.21875 74.21875 32.171875 74.21875 
Q 37.3125 74.21875 42.625 73.28125 
Q 47.953125 72.359375 53.515625 70.515625 
z
" id="DejaVuSans-83"/>
      <path d="M 18.3125 70.21875 
L 18.3125 54.6875 
L 36.8125 54.6875 
L 36.8125 47.703125 
L 18.3125 47.703125 
L 18.3125 18.015625 
Q 18.3125 11.328125 20.140625 9.421875 
Q 21.96875 7.515625 27.59375 7.515625 
L 36.8125 7.515625 
L 36.8125 0 
L 27.59375 0 
Q 17.1875 0 13.234375 3.875 
Q 9.28125 7.765625 9.28125 18.015625 
L 9.28125 47.703125 
L 2.6875 47.703125 
L 2.6875 54.6875 
L 9.28125 54.6875 
L 9.28125 70.21875 
z
" id="DejaVuSans-116"/>
      <path d="M 18.109375 8.203125 
L 18.109375 -20.796875 
L 9.078125 -20.796875 
L 9.078125 54.6875 
L 18.109375 54.6875 
L 18.109375 46.390625 
Q 20.953125 51.265625 25.265625 53.625 
Q 29.59375 56 35.59375 56 
Q 45.5625 56 51.78125 48.09375 
Q 58.015625 40.1875 58.015625 27.296875 
Q 58.015625 14.40625 51.78125 6.484375 
Q 45.5625 -1.421875 35.59375 -1.421875 
Q 29.59375 -1.421875 25.265625 0.953125 
Q 20.953125 3.328125 18.109375 8.203125 
z
M 48.6875 27.296875 
Q 48.6875 37.203125 44.609375 42.84375 
Q 40.53125 48.484375 33.40625 48.484375 
Q 26.265625 48.484375 22.1875 42.84375 
Q 18.109375 37.203125 18.109375 27.296875 
Q 18.109375 17.390625 22.1875 11.75 
Q 26.265625 6.109375 33.40625 6.109375 
Q 40.53125 6.109375 44.609375 11.75 
Q 48.6875 17.390625 48.6875 27.296875 
z
" id="DejaVuSans-112"/>
      <path d="M 44.28125 53.078125 
L 44.28125 44.578125 
Q 40.484375 46.53125 36.375 47.5 
Q 32.28125 48.484375 27.875 48.484375 
Q 21.1875 48.484375 17.84375 46.4375 
Q 14.5 44.390625 14.5 40.28125 
Q 14.5 37.15625 16.890625 35.375 
Q 19.28125 33.59375 26.515625 31.984375 
L 29.59375 31.296875 
Q 39.15625 29.25 43.1875 25.515625 
Q 47.21875 21.78125 47.21875 15.09375 
Q 47.21875 7.46875 41.1875 3.015625 
Q 35.15625 -1.421875 24.609375 -1.421875 
Q 20.21875 -1.421875 15.453125 -0.5625 
Q 10.6875 0.296875 5.421875 2 
L 5.421875 11.28125 
Q 10.40625 8.6875 15.234375 7.390625 
Q 20.0625 6.109375 24.8125 6.109375 
Q 31.15625 6.109375 34.5625 8.28125 
Q 37.984375 10.453125 37.984375 14.40625 
Q 37.984375 18.0625 35.515625 20.015625 
Q 33.0625 21.96875 24.703125 23.78125 
L 21.578125 24.515625 
Q 13.234375 26.265625 9.515625 29.90625 
Q 5.8125 33.546875 5.8125 39.890625 
Q 5.8125 47.609375 11.28125 51.796875 
Q 16.75 56 26.8125 56 
Q 31.78125 56 36.171875 55.265625 
Q 40.578125 54.546875 44.28125 53.078125 
z
" id="DejaVuSans-115"/>
     </defs>
     <g transform="translate(192.761719 256.416562)scale(0.1 -0.1)">
      <use xlink:href="#DejaVuSans-84"/>
      <use x="61.037109" xlink:href="#DejaVuSans-105"/>
      <use x="88.820312" xlink:href="#DejaVuSans-109"/>
      <use x="186.232422" xlink:href="#DejaVuSans-101"/>
      <use x="247.755859" xlink:href="#DejaVuSans-32"/>
      <use x="279.542969" xlink:href="#DejaVuSans-83"/>
      <use x="343.019531" xlink:href="#DejaVuSans-116"/>
      <use x="382.228516" xlink:href="#DejaVuSans-101"/>
      <use x="443.751953" xlink:href="#DejaVuSans-112"/>
      <use x="507.228516" xlink:href="#DejaVuSans-115"/>
     </g>
    </g>
   </g>
   <g id="matplotlib.axis_2">
    <g id="ytick_1">
     <g id="line2d_7">
      <defs>
       <path d="M 0 0 
L -3.5 0 
" id="m35bfc73abc" style="stroke:#000000;stroke-width:0.8;"/>
      </defs>
      <g>
       <use style="stroke:#000000;stroke-width:0.8;" x="53.328125" xlink:href="#m35bfc73abc" y="208.193645"/>
      </g>
     </g>
     <g id="text_8">
      <!-- 400 -->
      <g transform="translate(27.240625 211.992864)scale(0.1 -0.1)">
       <use xlink:href="#DejaVuSans-52"/>
       <use x="63.623047" xlink:href="#DejaVuSans-48"/>
       <use x="127.246094" xlink:href="#DejaVuSans-48"/>
      </g>
     </g>
    </g>
    <g id="ytick_2">
     <g id="line2d_8">
      <g>
       <use style="stroke:#000000;stroke-width:0.8;" x="53.328125" xlink:href="#m35bfc73abc" y="174.082734"/>
      </g>
     </g>
     <g id="text_9">
      <!-- 600 -->
      <g transform="translate(27.240625 177.881953)scale(0.1 -0.1)">
       <use xlink:href="#DejaVuSans-54"/>
       <use x="63.623047" xlink:href="#DejaVuSans-48"/>
       <use x="127.246094" xlink:href="#DejaVuSans-48"/>
      </g>
     </g>
    </g>
    <g id="ytick_3">
     <g id="line2d_9">
      <g>
       <use style="stroke:#000000;stroke-width:0.8;" x="53.328125" xlink:href="#m35bfc73abc" y="139.971824"/>
      </g>
     </g>
     <g id="text_10">
      <!-- 800 -->
      <g transform="translate(27.240625 143.771042)scale(0.1 -0.1)">
       <use xlink:href="#DejaVuSans-56"/>
       <use x="63.623047" xlink:href="#DejaVuSans-48"/>
       <use x="127.246094" xlink:href="#DejaVuSans-48"/>
      </g>
     </g>
    </g>
    <g id="ytick_4">
     <g id="line2d_10">
      <g>
       <use style="stroke:#000000;stroke-width:0.8;" x="53.328125" xlink:href="#m35bfc73abc" y="105.860913"/>
      </g>
     </g>
     <g id="text_11">
      <!-- 1000 -->
      <g transform="translate(20.878125 109.660132)scale(0.1 -0.1)">
       <use xlink:href="#DejaVuSans-49"/>
       <use x="63.623047" xlink:href="#DejaVuSans-48"/>
       <use x="127.246094" xlink:href="#DejaVuSans-48"/>
       <use x="190.869141" xlink:href="#DejaVuSans-48"/>
      </g>
     </g>
    </g>
    <g id="ytick_5">
     <g id="line2d_11">
      <g>
       <use style="stroke:#000000;stroke-width:0.8;" x="53.328125" xlink:href="#m35bfc73abc" y="71.750002"/>
      </g>
     </g>
     <g id="text_12">
      <!-- 1200 -->
      <g transform="translate(20.878125 75.549221)scale(0.1 -0.1)">
       <use xlink:href="#DejaVuSans-49"/>
       <use x="63.623047" xlink:href="#DejaVuSans-50"/>
       <use x="127.246094" xlink:href="#DejaVuSans-48"/>
       <use x="190.869141" xlink:href="#DejaVuSans-48"/>
      </g>
     </g>
    </g>
    <g id="ytick_6">
     <g id="line2d_12">
      <g>
       <use style="stroke:#000000;stroke-width:0.8;" x="53.328125" xlink:href="#m35bfc73abc" y="37.639092"/>
      </g>
     </g>
     <g id="text_13">
      <!-- 1400 -->
      <g transform="translate(20.878125 41.43831)scale(0.1 -0.1)">
       <use xlink:href="#DejaVuSans-49"/>
       <use x="63.623047" xlink:href="#DejaVuSans-52"/>
       <use x="127.246094" xlink:href="#DejaVuSans-48"/>
       <use x="190.869141" xlink:href="#DejaVuSans-48"/>
      </g>
     </g>
    </g>
    <g id="text_14">
     <!-- Number of Agents Alive -->
     <defs>
      <path d="M 9.8125 72.90625 
L 23.09375 72.90625 
L 55.421875 11.921875 
L 55.421875 72.90625 
L 64.984375 72.90625 
L 64.984375 0 
L 51.703125 0 
L 19.390625 60.984375 
L 19.390625 0 
L 9.8125 0 
z
" id="DejaVuSans-78"/>
      <path d="M 8.5 21.578125 
L 8.5 54.6875 
L 17.484375 54.6875 
L 17.484375 21.921875 
Q 17.484375 14.15625 20.5 10.265625 
Q 23.53125 6.390625 29.59375 6.390625 
Q 36.859375 6.390625 41.078125 11.03125 
Q 45.3125 15.671875 45.3125 23.6875 
L 45.3125 54.6875 
L 54.296875 54.6875 
L 54.296875 0 
L 45.3125 0 
L 45.3125 8.40625 
Q 42.046875 3.421875 37.71875 1 
Q 33.40625 -1.421875 27.6875 -1.421875 
Q 18.265625 -1.421875 13.375 4.4375 
Q 8.5 10.296875 8.5 21.578125 
z
M 31.109375 56 
z
" id="DejaVuSans-117"/>
      <path d="M 48.6875 27.296875 
Q 48.6875 37.203125 44.609375 42.84375 
Q 40.53125 48.484375 33.40625 48.484375 
Q 26.265625 48.484375 22.1875 42.84375 
Q 18.109375 37.203125 18.109375 27.296875 
Q 18.109375 17.390625 22.1875 11.75 
Q 26.265625 6.109375 33.40625 6.109375 
Q 40.53125 6.109375 44.609375 11.75 
Q 48.6875 17.390625 48.6875 27.296875 
z
M 18.109375 46.390625 
Q 20.953125 51.265625 25.265625 53.625 
Q 29.59375 56 35.59375 56 
Q 45.5625 56 51.78125 48.09375 
Q 58.015625 40.1875 58.015625 27.296875 
Q 58.015625 14.40625 51.78125 6.484375 
Q 45.5625 -1.421875 35.59375 -1.421875 
Q 29.59375 -1.421875 25.265625 0.953125 
Q 20.953125 3.328125 18.109375 8.203125 
L 18.109375 0 
L 9.078125 0 
L 9.078125 75.984375 
L 18.109375 75.984375 
z
" id="DejaVuSans-98"/>
      <path d="M 41.109375 46.296875 
Q 39.59375 47.171875 37.8125 47.578125 
Q 36.03125 48 33.890625 48 
Q 26.265625 48 22.1875 43.046875 
Q 18.109375 38.09375 18.109375 28.8125 
L 18.109375 0 
L 9.078125 0 
L 9.078125 54.6875 
L 18.109375 54.6875 
L 18.109375 46.1875 
Q 20.953125 51.171875 25.484375 53.578125 
Q 30.03125 56 36.53125 56 
Q 37.453125 56 38.578125 55.875 
Q 39.703125 55.765625 41.0625 55.515625 
z
" id="DejaVuSans-114"/>
      <path d="M 30.609375 48.390625 
Q 23.390625 48.390625 19.1875 42.75 
Q 14.984375 37.109375 14.984375 27.296875 
Q 14.984375 17.484375 19.15625 11.84375 
Q 23.34375 6.203125 30.609375 6.203125 
Q 37.796875 6.203125 41.984375 11.859375 
Q 46.1875 17.53125 46.1875 27.296875 
Q 46.1875 37.015625 41.984375 42.703125 
Q 37.796875 48.390625 30.609375 48.390625 
z
M 30.609375 56 
Q 42.328125 56 49.015625 48.375 
Q 55.71875 40.765625 55.71875 27.296875 
Q 55.71875 13.875 49.015625 6.21875 
Q 42.328125 -1.421875 30.609375 -1.421875 
Q 18.84375 -1.421875 12.171875 6.21875 
Q 5.515625 13.875 5.515625 27.296875 
Q 5.515625 40.765625 12.171875 48.375 
Q 18.84375 56 30.609375 56 
z
" id="DejaVuSans-111"/>
      <path d="M 37.109375 75.984375 
L 37.109375 68.5 
L 28.515625 68.5 
Q 23.6875 68.5 21.796875 66.546875 
Q 19.921875 64.59375 19.921875 59.515625 
L 19.921875 54.6875 
L 34.71875 54.6875 
L 34.71875 47.703125 
L 19.921875 47.703125 
L 19.921875 0 
L 10.890625 0 
L 10.890625 47.703125 
L 2.296875 47.703125 
L 2.296875 54.6875 
L 10.890625 54.6875 
L 10.890625 58.5 
Q 10.890625 67.625 15.140625 71.796875 
Q 19.390625 75.984375 28.609375 75.984375 
z
" id="DejaVuSans-102"/>
      <path d="M 34.1875 63.1875 
L 20.796875 26.90625 
L 47.609375 26.90625 
z
M 28.609375 72.90625 
L 39.796875 72.90625 
L 67.578125 0 
L 57.328125 0 
L 50.6875 18.703125 
L 17.828125 18.703125 
L 11.1875 0 
L 0.78125 0 
z
" id="DejaVuSans-65"/>
      <path d="M 45.40625 27.984375 
Q 45.40625 37.75 41.375 43.109375 
Q 37.359375 48.484375 30.078125 48.484375 
Q 22.859375 48.484375 18.828125 43.109375 
Q 14.796875 37.75 14.796875 27.984375 
Q 14.796875 18.265625 18.828125 12.890625 
Q 22.859375 7.515625 30.078125 7.515625 
Q 37.359375 7.515625 41.375 12.890625 
Q 45.40625 18.265625 45.40625 27.984375 
z
M 54.390625 6.78125 
Q 54.390625 -7.171875 48.1875 -13.984375 
Q 42 -20.796875 29.203125 -20.796875 
Q 24.46875 -20.796875 20.265625 -20.09375 
Q 16.0625 -19.390625 12.109375 -17.921875 
L 12.109375 -9.1875 
Q 16.0625 -11.328125 19.921875 -12.34375 
Q 23.78125 -13.375 27.78125 -13.375 
Q 36.625 -13.375 41.015625 -8.765625 
Q 45.40625 -4.15625 45.40625 5.171875 
L 45.40625 9.625 
Q 42.625 4.78125 38.28125 2.390625 
Q 33.9375 0 27.875 0 
Q 17.828125 0 11.671875 7.65625 
Q 5.515625 15.328125 5.515625 27.984375 
Q 5.515625 40.671875 11.671875 48.328125 
Q 17.828125 56 27.875 56 
Q 33.9375 56 38.28125 53.609375 
Q 42.625 51.21875 45.40625 46.390625 
L 45.40625 54.6875 
L 54.390625 54.6875 
z
" id="DejaVuSans-103"/>
      <path d="M 54.890625 33.015625 
L 54.890625 0 
L 45.90625 0 
L 45.90625 32.71875 
Q 45.90625 40.484375 42.875 44.328125 
Q 39.84375 48.1875 33.796875 48.1875 
Q 26.515625 48.1875 22.3125 43.546875 
Q 18.109375 38.921875 18.109375 30.90625 
L 18.109375 0 
L 9.078125 0 
L 9.078125 54.6875 
L 18.109375 54.6875 
L 18.109375 46.1875 
Q 21.34375 51.125 25.703125 53.5625 
Q 30.078125 56 35.796875 56 
Q 45.21875 56 50.046875 50.171875 
Q 54.890625 44.34375 54.890625 33.015625 
z
" id="DejaVuSans-110"/>
      <path d="M 9.421875 75.984375 
L 18.40625 75.984375 
L 18.40625 0 
L 9.421875 0 
z
" id="DejaVuSans-108"/>
      <path d="M 2.984375 54.6875 
L 12.5 54.6875 
L 29.59375 8.796875 
L 46.6875 54.6875 
L 56.203125 54.6875 
L 35.6875 0 
L 23.484375 0 
z
" id="DejaVuSans-118"/>
     </defs>
     <g transform="translate(14.798438 178.731719)rotate(-90)scale(0.1 -0.1)">
      <use xlink:href="#DejaVuSans-78"/>
      <use x="74.804688" xlink:href="#DejaVuSans-117"/>
      <use x="138.183594" xlink:href="#DejaVuSans-109"/>
      <use x="235.595703" xlink:href="#DejaVuSans-98"/>
      <use x="299.072266" xlink:href="#DejaVuSans-101"/>
      <use x="360.595703" xlink:href="#DejaVuSans-114"/>
      <use x="401.708984" xlink:href="#DejaVuSans-32"/>
      <use x="433.496094" xlink:href="#DejaVuSans-111"/>
      <use x="494.677734" xlink:href="#DejaVuSans-102"/>
      <use x="529.882812" xlink:href="#DejaVuSans-32"/>
      <use x="561.669922" xlink:href="#DejaVuSans-65"/>
      <use x="630.078125" xlink:href="#DejaVuSans-103"/>
      <use x="693.554688" xlink:href="#DejaVuSans-101"/>
      <use x="755.078125" xlink:href="#DejaVuSans-110"/>
      <use x="818.457031" xlink:href="#DejaVuSans-116"/>
      <use x="857.666016" xlink:href="#DejaVuSans-115"/>
      <use x="909.765625" xlink:href="#DejaVuSans-32"/>
      <use x="941.552734" xlink:href="#DejaVuSans-65"/>
      <use x="1009.960938" xlink:href="#DejaVuSans-108"/>
      <use x="1037.744141" xlink:href="#DejaVuSans-105"/>
      <use x="1065.527344" xlink:href="#DejaVuSans-118"/>
      <use x="1124.707031" xlink:href="#DejaVuSans-101"/>
     </g>
    </g>
   </g>
   <g id="line2d_13">
    <path clip-path="url(#pbeeba09f4f)" d="M 68.546307 20.924745 
L 71.620687 21.777518 
L 74.695067 23.141955 
L 77.769447 26.211937 
L 80.843827 31.669682 
L 83.918208 37.980201 
L 86.992588 48.042919 
L 90.066968 61.17562 
L 93.141348 73.796657 
L 96.215728 90.340449 
L 99.290108 109.783668 
L 102.364489 130.761878 
L 105.438869 150.375651 
L 108.513249 167.089998 
L 111.587629 184.657117 
L 114.662009 196.937044 
L 117.736389 204.611999 
L 120.81077 212.1164 
L 123.88515 215.186382 
L 126.95953 216.380264 
L 130.03391 217.403591 
L 133.10829 218.256364 
L 136.18267 218.256364 
L 139.257051 218.256364 
L 142.331431 218.256364 
L 145.405811 218.256364 
L 148.480191 218.256364 
L 151.554571 218.256364 
L 154.628951 218.256364 
L 157.703332 218.256364 
L 160.777712 218.256364 
L 163.852092 218.256364 
L 166.926472 218.256364 
L 170.000852 218.256364 
L 173.075232 218.256364 
L 176.149613 218.256364 
L 179.223993 218.256364 
L 182.298373 218.256364 
L 185.372753 218.256364 
L 188.447133 218.256364 
L 191.521513 218.256364 
L 194.595894 218.256364 
L 197.670274 218.256364 
L 200.744654 218.256364 
L 203.819034 218.256364 
L 206.893414 218.256364 
L 209.967794 218.256364 
L 213.042175 218.256364 
L 216.116555 218.256364 
L 219.190935 218.256364 
L 222.265315 218.256364 
L 225.339695 218.256364 
L 228.414075 218.256364 
L 231.488456 218.256364 
L 234.562836 218.256364 
L 237.637216 218.256364 
L 240.711596 218.256364 
L 243.785976 218.256364 
L 246.860356 218.256364 
L 249.934737 218.256364 
L 253.009117 218.256364 
L 256.083497 218.256364 
L 259.157877 218.256364 
L 262.232257 218.256364 
L 265.306637 218.256364 
L 268.381018 218.256364 
L 271.455398 218.256364 
L 274.529778 218.256364 
L 277.604158 218.256364 
L 280.678538 218.256364 
L 283.752918 218.256364 
L 286.827299 218.256364 
L 289.901679 218.256364 
L 292.976059 218.256364 
L 296.050439 218.256364 
L 299.124819 218.256364 
L 302.199199 218.256364 
L 305.27358 218.256364 
L 308.34796 218.256364 
L 311.42234 218.256364 
L 314.49672 218.256364 
L 317.5711 218.256364 
L 320.64548 218.256364 
L 323.719861 218.256364 
L 326.794241 218.256364 
L 329.868621 218.256364 
L 332.943001 218.256364 
L 336.017381 218.256364 
L 339.091761 218.256364 
L 342.166142 218.256364 
L 345.240522 218.256364 
L 348.314902 218.256364 
L 351.389282 218.256364 
L 354.463662 218.256364 
L 357.538042 218.256364 
L 360.612423 218.256364 
L 363.686803 218.256364 
L 366.761183 218.256364 
L 369.835563 218.256364 
L 372.909943 218.256364 
" style="fill:none;stroke:#1f77b4;stroke-linecap:square;"/>
   </g>
   <g id="line2d_14">
    <path clip-path="url(#pbeeba09f4f)" d="M 68.546307 20.583636 
L 71.620687 21.948073 
L 74.695067 23.824173 
L 77.769447 26.382491 
L 80.843827 29.793582 
L 83.918208 32.863564 
L 86.992588 37.468537 
L 90.066968 45.655156 
L 93.141348 52.306783 
L 96.215728 62.369502 
L 99.290108 73.284993 
L 102.364489 86.076585 
L 105.438869 99.038731 
L 108.513249 115.582523 
L 111.587629 128.033005 
L 114.662009 140.824596 
L 117.736389 152.422306 
L 120.81077 161.973361 
L 123.88515 167.94277 
L 126.95953 175.276616 
L 130.03391 179.54048 
L 133.10829 182.781017 
L 136.18267 184.145453 
L 139.257051 185.509889 
L 142.331431 186.362662 
L 145.405811 187.215435 
L 148.480191 187.215435 
L 151.554571 187.215435 
L 154.628951 187.215435 
L 157.703332 187.215435 
L 160.777712 187.215435 
L 163.852092 187.215435 
L 166.926472 187.215435 
L 170.000852 187.215435 
L 173.075232 187.215435 
L 176.149613 187.215435 
L 179.223993 187.215435 
L 182.298373 187.215435 
L 185.372753 187.215435 
L 188.447133 187.215435 
L 191.521513 187.215435 
L 194.595894 187.215435 
L 197.670274 187.215435 
L 200.744654 187.215435 
L 203.819034 187.215435 
L 206.893414 187.215435 
L 209.967794 187.215435 
L 213.042175 187.215435 
L 216.116555 187.215435 
L 219.190935 187.215435 
L 222.265315 187.215435 
L 225.339695 187.215435 
L 228.414075 187.215435 
L 231.488456 187.215435 
L 234.562836 187.215435 
L 237.637216 187.215435 
L 240.711596 187.215435 
L 243.785976 187.215435 
L 246.860356 187.215435 
L 249.934737 187.215435 
L 253.009117 187.215435 
L 256.083497 187.215435 
L 259.157877 187.215435 
L 262.232257 187.215435 
L 265.306637 187.215435 
L 268.381018 187.215435 
L 271.455398 187.215435 
L 274.529778 187.215435 
L 277.604158 187.215435 
L 280.678538 187.215435 
L 283.752918 187.215435 
L 286.827299 187.215435 
L 289.901679 187.215435 
L 292.976059 187.215435 
L 296.050439 187.215435 
L 299.124819 187.215435 
L 302.199199 187.215435 
L 305.27358 187.215435 
L 308.34796 187.215435 
L 311.42234 187.215435 
L 314.49672 187.215435 
L 317.5711 187.215435 
L 320.64548 187.215435 
L 323.719861 187.215435 
L 326.794241 187.215435 
L 329.868621 187.215435 
L 332.943001 187.215435 
L 336.017381 187.215435 
L 339.091761 187.215435 
L 342.166142 187.215435 
L 345.240522 187.215435 
L 348.314902 187.215435 
L 351.389282 187.215435 
L 354.463662 187.215435 
L 357.538042 187.215435 
L 360.612423 187.215435 
L 363.686803 187.215435 
L 366.761183 187.215435 
L 369.835563 187.215435 
L 372.909943 187.215435 
" style="fill:none;stroke:#ff7f0e;stroke-linecap:square;"/>
   </g>
   <g id="line2d_15">
    <path clip-path="url(#pbeeba09f4f)" d="M 68.546307 20.754191 
L 71.620687 21.0953 
L 74.695067 21.606964 
L 77.769447 22.459736 
L 80.843827 24.506391 
L 83.918208 26.211937 
L 86.992588 28.258591 
L 90.066968 29.793582 
L 93.141348 33.034119 
L 96.215728 37.809646 
L 99.290108 40.538519 
L 102.364489 44.802383 
L 105.438869 51.454011 
L 108.513249 57.935084 
L 111.587629 63.392829 
L 114.662009 71.579448 
L 117.736389 78.060521 
L 120.81077 86.076585 
L 123.88515 92.045994 
L 126.95953 100.062058 
L 130.03391 107.907568 
L 133.10829 114.047532 
L 136.18267 121.040268 
L 139.257051 128.033005 
L 142.331431 134.172969 
L 145.405811 137.413505 
L 148.480191 140.824596 
L 151.554571 142.871251 
L 154.628951 143.894578 
L 157.703332 144.576797 
L 160.777712 145.600124 
L 163.852092 146.96456 
L 166.926472 147.135115 
L 170.000852 147.135115 
L 173.075232 147.135115 
L 176.149613 147.305669 
L 179.223993 147.305669 
L 182.298373 147.305669 
L 185.372753 147.305669 
L 188.447133 147.305669 
L 191.521513 147.305669 
L 194.595894 147.305669 
L 197.670274 147.305669 
L 200.744654 147.305669 
L 203.819034 147.305669 
L 206.893414 147.305669 
L 209.967794 147.305669 
L 213.042175 147.305669 
L 216.116555 147.305669 
L 219.190935 147.305669 
L 222.265315 147.305669 
L 225.339695 147.305669 
L 228.414075 147.305669 
L 231.488456 147.305669 
L 234.562836 147.305669 
L 237.637216 147.305669 
L 240.711596 147.305669 
L 243.785976 147.305669 
L 246.860356 147.305669 
L 249.934737 147.305669 
L 253.009117 147.305669 
L 256.083497 147.305669 
L 259.157877 147.305669 
L 262.232257 147.305669 
L 265.306637 147.305669 
L 268.381018 147.305669 
L 271.455398 147.305669 
L 274.529778 147.305669 
L 277.604158 147.305669 
L 280.678538 147.305669 
L 283.752918 147.305669 
L 286.827299 147.305669 
L 289.901679 147.305669 
L 292.976059 147.305669 
L 296.050439 147.305669 
L 299.124819 147.305669 
L 302.199199 147.305669 
L 305.27358 147.305669 
L 308.34796 147.305669 
L 311.42234 147.305669 
L 314.49672 147.305669 
L 317.5711 147.305669 
L 320.64548 147.305669 
L 323.719861 147.305669 
L 326.794241 147.305669 
L 329.868621 147.305669 
L 332.943001 147.305669 
L 336.017381 147.305669 
L 339.091761 147.305669 
L 342.166142 147.305669 
L 345.240522 147.305669 
L 348.314902 147.305669 
L 351.389282 147.305669 
L 354.463662 147.305669 
L 357.538042 147.305669 
L 360.612423 147.305669 
L 363.686803 147.305669 
L 366.761183 147.305669 
L 369.835563 147.305669 
L 372.909943 147.305669 
" style="fill:none;stroke:#2ca02c;stroke-linecap:square;"/>
   </g>
   <g id="line2d_16">
    <path clip-path="url(#pbeeba09f4f)" d="M 68.546307 20.583636 
L 71.620687 20.583636 
L 74.695067 21.265855 
L 77.769447 21.436409 
L 80.843827 21.948073 
L 83.918208 22.289182 
L 86.992588 22.9714 
L 90.066968 23.312509 
L 93.141348 24.335837 
L 96.215728 25.529718 
L 99.290108 26.894155 
L 102.364489 27.917482 
L 105.438869 29.964137 
L 108.513249 31.158019 
L 111.587629 31.840237 
L 114.662009 32.351901 
L 117.736389 33.034119 
L 120.81077 33.886892 
L 123.88515 34.228001 
L 126.95953 34.56911 
L 130.03391 35.421883 
L 133.10829 35.762992 
L 136.18267 37.297983 
L 139.257051 38.491864 
L 142.331431 39.003528 
L 145.405811 40.026855 
L 148.480191 40.538519 
L 151.554571 42.07351 
L 154.628951 43.437947 
L 157.703332 44.802383 
L 160.777712 45.996265 
L 163.852092 49.236801 
L 166.926472 51.965674 
L 170.000852 54.012329 
L 173.075232 56.400093 
L 176.149613 58.787856 
L 179.223993 60.493402 
L 182.298373 62.028393 
L 185.372753 65.268929 
L 188.447133 68.509466 
L 191.521513 71.067784 
L 194.595894 74.478875 
L 197.670274 77.719412 
L 200.744654 79.424957 
L 203.819034 82.665494 
L 206.893414 84.882703 
L 209.967794 87.78213 
L 213.042175 90.511003 
L 216.116555 91.704885 
L 219.190935 93.922094 
L 222.265315 95.968749 
L 225.339695 96.650967 
L 228.414075 97.844849 
L 231.488456 99.37984 
L 234.562836 101.085386 
L 237.637216 102.108713 
L 240.711596 103.302595 
L 243.785976 104.496477 
L 246.860356 105.178695 
L 249.934737 105.690358 
L 253.009117 106.543131 
L 256.083497 106.88424 
L 259.157877 106.88424 
L 262.232257 107.054795 
L 265.306637 107.054795 
L 268.381018 107.225349 
L 271.455398 107.225349 
L 274.529778 107.225349 
L 277.604158 107.225349 
L 280.678538 107.225349 
L 283.752918 107.225349 
L 286.827299 107.225349 
L 289.901679 107.225349 
L 292.976059 107.225349 
L 296.050439 107.225349 
L 299.124819 107.225349 
L 302.199199 107.225349 
L 305.27358 107.225349 
L 308.34796 107.225349 
L 311.42234 107.225349 
L 314.49672 107.225349 
L 317.5711 107.225349 
L 320.64548 107.225349 
L 323.719861 107.225349 
L 326.794241 107.225349 
L 329.868621 107.225349 
L 332.943001 107.225349 
L 336.017381 107.225349 
L 339.091761 107.225349 
L 342.166142 107.225349 
L 345.240522 107.225349 
L 348.314902 107.225349 
L 351.389282 107.225349 
L 354.463662 107.225349 
L 357.538042 107.225349 
L 360.612423 107.225349 
L 363.686803 107.225349 
L 366.761183 107.225349 
L 369.835563 107.225349 
L 372.909943 107.225349 
" style="fill:none;stroke:#d62728;stroke-linecap:square;"/>
   </g>
   <g id="line2d_17">
    <path clip-path="url(#pbeeba09f4f)" d="M 68.546307 20.583636 
L 71.620687 20.754191 
L 74.695067 20.924745 
L 77.769447 21.0953 
L 80.843827 21.436409 
L 83.918208 22.118627 
L 86.992588 22.289182 
L 90.066968 22.630291 
L 93.141348 23.312509 
L 96.215728 23.824173 
L 99.290108 24.506391 
L 102.364489 25.359164 
L 105.438869 26.382491 
L 108.513249 27.917482 
L 111.587629 29.111364 
L 114.662009 29.623028 
L 117.736389 29.964137 
L 120.81077 30.4758 
L 123.88515 30.4758 
L 126.95953 31.499128 
L 130.03391 31.499128 
L 133.10829 32.010791 
L 136.18267 32.351901 
L 139.257051 33.375228 
L 142.331431 34.739664 
L 145.405811 35.592437 
L 148.480191 36.44521 
L 151.554571 37.297983 
L 154.628951 38.491864 
L 157.703332 40.026855 
L 160.777712 41.391292 
L 163.852092 42.07351 
L 166.926472 43.096837 
L 170.000852 43.437947 
L 173.075232 44.461274 
L 176.149613 45.314047 
L 179.223993 45.82571 
L 182.298373 46.337374 
L 185.372753 46.678483 
L 188.447133 46.849038 
L 191.521513 47.190147 
L 194.595894 47.531256 
L 197.670274 47.872365 
L 200.744654 48.213474 
L 203.819034 48.384029 
L 206.893414 48.725138 
L 209.967794 48.895692 
L 213.042175 48.895692 
L 216.116555 49.066247 
L 219.190935 49.236801 
L 222.265315 49.236801 
L 225.339695 49.236801 
L 228.414075 49.236801 
L 231.488456 49.236801 
L 234.562836 49.236801 
L 237.637216 49.236801 
L 240.711596 49.236801 
L 243.785976 49.236801 
L 246.860356 49.236801 
L 249.934737 49.236801 
L 253.009117 49.236801 
L 256.083497 49.236801 
L 259.157877 49.236801 
L 262.232257 49.236801 
L 265.306637 49.236801 
L 268.381018 49.236801 
L 271.455398 49.236801 
L 274.529778 49.236801 
L 277.604158 49.236801 
L 280.678538 49.236801 
L 283.752918 49.236801 
L 286.827299 49.236801 
L 289.901679 49.236801 
L 292.976059 49.236801 
L 296.050439 49.236801 
L 299.124819 49.236801 
L 302.199199 49.236801 
L 305.27358 49.236801 
L 308.34796 49.236801 
L 311.42234 49.236801 
L 314.49672 49.236801 
L 317.5711 49.236801 
L 320.64548 49.236801 
L 323.719861 49.236801 
L 326.794241 49.236801 
L 329.868621 49.236801 
L 332.943001 49.236801 
L 336.017381 49.236801 
L 339.091761 49.236801 
L 342.166142 49.236801 
L 345.240522 49.236801 
L 348.314902 49.236801 
L 351.389282 49.236801 
L 354.463662 49.236801 
L 357.538042 49.236801 
L 360.612423 49.236801 
L 363.686803 49.236801 
L 366.761183 49.236801 
L 369.835563 49.236801 
L 372.909943 49.236801 
" style="fill:none;stroke:#9467bd;stroke-linecap:square;"/>
   </g>
   <g id="line2d_18">
    <path clip-path="url(#pbeeba09f4f)" d="M 68.546307 20.583636 
L 71.620687 20.583636 
L 74.695067 20.754191 
L 77.769447 20.924745 
L 80.843827 21.436409 
L 83.918208 22.118627 
L 86.992588 22.459736 
L 90.066968 22.800846 
L 93.141348 23.312509 
L 96.215728 23.483064 
L 99.290108 24.676946 
L 102.364489 25.018055 
L 105.438869 25.188609 
L 108.513249 25.870828 
L 111.587629 26.041382 
L 114.662009 26.041382 
L 117.736389 26.382491 
L 120.81077 26.894155 
L 123.88515 26.894155 
L 126.95953 27.405818 
L 130.03391 28.5997 
L 133.10829 28.770255 
L 136.18267 29.452473 
L 139.257051 29.964137 
L 142.331431 30.134691 
L 145.405811 30.4758 
L 148.480191 30.646355 
L 151.554571 30.81691 
L 154.628951 31.328573 
L 157.703332 31.669682 
L 160.777712 31.840237 
L 163.852092 32.010791 
L 166.926472 32.181346 
L 170.000852 32.351901 
L 173.075232 32.69301 
L 176.149613 32.863564 
L 179.223993 33.204673 
L 182.298373 33.375228 
L 185.372753 33.886892 
L 188.447133 34.228001 
L 191.521513 35.080773 
L 194.595894 35.251328 
L 197.670274 35.933546 
L 200.744654 37.468537 
L 203.819034 37.980201 
L 206.893414 38.150755 
L 209.967794 38.662419 
L 213.042175 39.685746 
L 216.116555 40.367965 
L 219.190935 41.050183 
L 222.265315 41.220737 
L 225.339695 41.391292 
L 228.414075 42.244065 
L 231.488456 42.244065 
L 234.562836 42.244065 
L 237.637216 42.244065 
L 240.711596 42.244065 
L 243.785976 42.585174 
L 246.860356 42.755728 
L 249.934737 42.755728 
L 253.009117 42.755728 
L 256.083497 43.096837 
L 259.157877 43.096837 
L 262.232257 43.096837 
L 265.306637 43.096837 
L 268.381018 43.267392 
L 271.455398 43.267392 
L 274.529778 43.267392 
L 277.604158 43.267392 
L 280.678538 43.267392 
L 283.752918 43.267392 
L 286.827299 43.267392 
L 289.901679 43.267392 
L 292.976059 43.267392 
L 296.050439 43.267392 
L 299.124819 43.267392 
L 302.199199 43.267392 
L 305.27358 43.267392 
L 308.34796 43.267392 
L 311.42234 43.267392 
L 314.49672 43.267392 
L 317.5711 43.267392 
L 320.64548 43.267392 
L 323.719861 43.267392 
L 326.794241 43.267392 
L 329.868621 43.267392 
L 332.943001 43.267392 
L 336.017381 43.267392 
L 339.091761 43.267392 
L 342.166142 43.267392 
L 345.240522 43.267392 
L 348.314902 43.267392 
L 351.389282 43.267392 
L 354.463662 43.267392 
L 357.538042 43.267392 
L 360.612423 43.267392 
L 363.686803 43.267392 
L 366.761183 43.267392 
L 369.835563 43.267392 
L 372.909943 43.267392 
" style="fill:none;stroke:#8c564b;stroke-linecap:square;"/>
   </g>
   <g id="line2d_19">
    <path clip-path="url(#pbeeba09f4f)" d="M 68.546307 20.583636 
L 71.620687 20.583636 
L 74.695067 20.754191 
L 77.769447 20.754191 
L 80.843827 21.0953 
L 83.918208 21.436409 
L 86.992588 21.436409 
L 90.066968 21.436409 
L 93.141348 21.436409 
L 96.215728 21.436409 
L 99.290108 21.436409 
L 102.364489 21.436409 
L 105.438869 21.436409 
L 108.513249 21.436409 
L 111.587629 21.436409 
L 114.662009 21.436409 
L 117.736389 21.436409 
L 120.81077 21.436409 
L 123.88515 21.436409 
L 126.95953 21.436409 
L 130.03391 21.436409 
L 133.10829 21.436409 
L 136.18267 21.436409 
L 139.257051 21.436409 
L 142.331431 21.436409 
L 145.405811 21.436409 
L 148.480191 21.436409 
L 151.554571 21.436409 
L 154.628951 21.436409 
L 157.703332 21.436409 
L 160.777712 21.436409 
L 163.852092 21.436409 
L 166.926472 21.436409 
L 170.000852 21.436409 
L 173.075232 21.436409 
L 176.149613 21.436409 
L 179.223993 21.436409 
L 182.298373 21.436409 
L 185.372753 21.436409 
L 188.447133 21.436409 
L 191.521513 21.436409 
L 194.595894 21.436409 
L 197.670274 21.436409 
L 200.744654 21.436409 
L 203.819034 21.436409 
L 206.893414 21.436409 
L 209.967794 21.436409 
L 213.042175 21.436409 
L 216.116555 21.436409 
L 219.190935 21.436409 
L 222.265315 21.436409 
L 225.339695 21.436409 
L 228.414075 21.436409 
L 231.488456 21.436409 
L 234.562836 21.436409 
L 237.637216 21.436409 
L 240.711596 21.436409 
L 243.785976 21.436409 
L 246.860356 21.436409 
L 249.934737 21.436409 
L 253.009117 21.436409 
L 256.083497 21.436409 
L 259.157877 21.436409 
L 262.232257 21.436409 
L 265.306637 21.436409 
L 268.381018 21.436409 
L 271.455398 21.436409 
L 274.529778 21.436409 
L 277.604158 21.436409 
L 280.678538 21.436409 
L 283.752918 21.436409 
L 286.827299 21.436409 
L 289.901679 21.436409 
L 292.976059 21.436409 
L 296.050439 21.436409 
L 299.124819 21.436409 
L 302.199199 21.436409 
L 305.27358 21.436409 
L 308.34796 21.436409 
L 311.42234 21.436409 
L 314.49672 21.436409 
L 317.5711 21.436409 
L 320.64548 21.436409 
L 323.719861 21.436409 
L 326.794241 21.436409 
L 329.868621 21.436409 
L 332.943001 21.436409 
L 336.017381 21.436409 
L 339.091761 21.436409 
L 342.166142 21.436409 
L 345.240522 21.436409 
L 348.314902 21.436409 
L 351.389282 21.436409 
L 354.463662 21.436409 
L 357.538042 21.436409 
L 360.612423 21.436409 
L 363.686803 21.436409 
L 366.761183 21.436409 
L 369.835563 21.436409 
L 372.909943 21.436409 
" style="fill:none;stroke:#e377c2;stroke-linecap:square;"/>
   </g>
   <g id="line2d_20">
    <path clip-path="url(#pbeeba09f4f)" d="M 68.546307 20.583636 
L 71.620687 20.583636 
L 74.695067 20.754191 
L 77.769447 20.754191 
L 80.843827 21.265855 
L 83.918208 21.265855 
L 86.992588 21.265855 
L 90.066968 21.265855 
L 93.141348 21.265855 
L 96.215728 21.265855 
L 99.290108 21.265855 
L 102.364489 21.265855 
L 105.438869 21.265855 
L 108.513249 21.265855 
L 111.587629 21.265855 
L 114.662009 21.265855 
L 117.736389 21.265855 
L 120.81077 21.265855 
L 123.88515 21.265855 
L 126.95953 21.265855 
L 130.03391 21.265855 
L 133.10829 21.265855 
L 136.18267 21.265855 
L 139.257051 21.265855 
L 142.331431 21.265855 
L 145.405811 21.265855 
L 148.480191 21.265855 
L 151.554571 21.265855 
L 154.628951 21.265855 
L 157.703332 21.265855 
L 160.777712 21.265855 
L 163.852092 21.265855 
L 166.926472 21.265855 
L 170.000852 21.265855 
L 173.075232 21.265855 
L 176.149613 21.265855 
L 179.223993 21.265855 
L 182.298373 21.265855 
L 185.372753 21.265855 
L 188.447133 21.265855 
L 191.521513 21.265855 
L 194.595894 21.265855 
L 197.670274 21.265855 
L 200.744654 21.265855 
L 203.819034 21.265855 
L 206.893414 21.265855 
L 209.967794 21.265855 
L 213.042175 21.265855 
L 216.116555 21.265855 
L 219.190935 21.265855 
L 222.265315 21.265855 
L 225.339695 21.265855 
L 228.414075 21.265855 
L 231.488456 21.265855 
L 234.562836 21.265855 
L 237.637216 21.265855 
L 240.711596 21.265855 
L 243.785976 21.265855 
L 246.860356 21.265855 
L 249.934737 21.265855 
L 253.009117 21.265855 
L 256.083497 21.265855 
L 259.157877 21.265855 
L 262.232257 21.265855 
L 265.306637 21.265855 
L 268.381018 21.265855 
L 271.455398 21.265855 
L 274.529778 21.265855 
L 277.604158 21.265855 
L 280.678538 21.265855 
L 283.752918 21.265855 
L 286.827299 21.265855 
L 289.901679 21.265855 
L 292.976059 21.265855 
L 296.050439 21.265855 
L 299.124819 21.265855 
L 302.199199 21.265855 
L 305.27358 21.265855 
L 308.34796 21.265855 
L 311.42234 21.265855 
L 314.49672 21.265855 
L 317.5711 21.265855 
L 320.64548 21.265855 
L 323.719861 21.265855 
L 326.794241 21.265855 
L 329.868621 21.265855 
L 332.943001 21.265855 
L 336.017381 21.265855 
L 339.091761 21.265855 
L 342.166142 21.265855 
L 345.240522 21.265855 
L 348.314902 21.265855 
L 351.389282 21.265855 
L 354.463662 21.265855 
L 357.538042 21.265855 
L 360.612423 21.265855 
L 363.686803 21.265855 
L 366.761183 21.265855 
L 369.835563 21.265855 
L 372.909943 21.265855 
" style="fill:none;stroke:#7f7f7f;stroke-linecap:square;"/>
   </g>
   <g id="patch_3">
    <path d="M 53.328125 228.14 
L 53.328125 10.7 
" style="fill:none;stroke:#000000;stroke-linecap:square;stroke-linejoin:miter;stroke-width:0.8;"/>
   </g>
   <g id="patch_4">
    <path d="M 388.128125 228.14 
L 388.128125 10.7 
" style="fill:none;stroke:#000000;stroke-linecap:square;stroke-linejoin:miter;stroke-width:0.8;"/>
   </g>
   <g id="patch_5">
    <path d="M 53.328125 228.14 
L 388.128125 228.14 
" style="fill:none;stroke:#000000;stroke-linecap:square;stroke-linejoin:miter;stroke-width:0.8;"/>
   </g>
   <g id="patch_6">
    <path d="M 53.328125 10.7 
L 388.128125 10.7 
" style="fill:none;stroke:#000000;stroke-linecap:square;stroke-linejoin:miter;stroke-width:0.8;"/>
   </g>
   <g id="legend_1">
    <g id="patch_7">
     <path d="M 406.868125 131.125 
L 560.547812 131.125 
Q 562.547812 131.125 562.547812 129.125 
L 562.547812 12.7 
Q 562.547812 10.7 560.547812 10.7 
L 406.868125 10.7 
Q 404.868125 10.7 404.868125 12.7 
L 404.868125 129.125 
Q 404.868125 131.125 406.868125 131.125 
z
" style="fill:#ffffff;opacity:0.8;stroke:#cccccc;stroke-linejoin:miter;"/>
    </g>
    <g id="line2d_21">
     <path d="M 408.868125 18.798437 
L 428.868125 18.798437 
" style="fill:none;stroke:#1f77b4;stroke-linecap:square;"/>
    </g>
    <g id="line2d_22"/>
    <g id="text_15">
     <!-- Vaccination Rate = 0.00 -->
     <defs>
      <path d="M 28.609375 0 
L 0.78125 72.90625 
L 11.078125 72.90625 
L 34.1875 11.53125 
L 57.328125 72.90625 
L 67.578125 72.90625 
L 39.796875 0 
z
" id="DejaVuSans-86"/>
      <path d="M 34.28125 27.484375 
Q 23.390625 27.484375 19.1875 25 
Q 14.984375 22.515625 14.984375 16.5 
Q 14.984375 11.71875 18.140625 8.90625 
Q 21.296875 6.109375 26.703125 6.109375 
Q 34.1875 6.109375 38.703125 11.40625 
Q 43.21875 16.703125 43.21875 25.484375 
L 43.21875 27.484375 
z
M 52.203125 31.203125 
L 52.203125 0 
L 43.21875 0 
L 43.21875 8.296875 
Q 40.140625 3.328125 35.546875 0.953125 
Q 30.953125 -1.421875 24.3125 -1.421875 
Q 15.921875 -1.421875 10.953125 3.296875 
Q 6 8.015625 6 15.921875 
Q 6 25.140625 12.171875 29.828125 
Q 18.359375 34.515625 30.609375 34.515625 
L 43.21875 34.515625 
L 43.21875 35.40625 
Q 43.21875 41.609375 39.140625 45 
Q 35.0625 48.390625 27.6875 48.390625 
Q 23 48.390625 18.546875 47.265625 
Q 14.109375 46.140625 10.015625 43.890625 
L 10.015625 52.203125 
Q 14.9375 54.109375 19.578125 55.046875 
Q 24.21875 56 28.609375 56 
Q 40.484375 56 46.34375 49.84375 
Q 52.203125 43.703125 52.203125 31.203125 
z
" id="DejaVuSans-97"/>
      <path d="M 48.78125 52.59375 
L 48.78125 44.1875 
Q 44.96875 46.296875 41.140625 47.34375 
Q 37.3125 48.390625 33.40625 48.390625 
Q 24.65625 48.390625 19.8125 42.84375 
Q 14.984375 37.3125 14.984375 27.296875 
Q 14.984375 17.28125 19.8125 11.734375 
Q 24.65625 6.203125 33.40625 6.203125 
Q 37.3125 6.203125 41.140625 7.25 
Q 44.96875 8.296875 48.78125 10.40625 
L 48.78125 2.09375 
Q 45.015625 0.34375 40.984375 -0.53125 
Q 36.96875 -1.421875 32.421875 -1.421875 
Q 20.0625 -1.421875 12.78125 6.34375 
Q 5.515625 14.109375 5.515625 27.296875 
Q 5.515625 40.671875 12.859375 48.328125 
Q 20.21875 56 33.015625 56 
Q 37.15625 56 41.109375 55.140625 
Q 45.0625 54.296875 48.78125 52.59375 
z
" id="DejaVuSans-99"/>
      <path d="M 44.390625 34.1875 
Q 47.5625 33.109375 50.5625 29.59375 
Q 53.5625 26.078125 56.59375 19.921875 
L 66.609375 0 
L 56 0 
L 46.6875 18.703125 
Q 43.0625 26.03125 39.671875 28.421875 
Q 36.28125 30.8125 30.421875 30.8125 
L 19.671875 30.8125 
L 19.671875 0 
L 9.8125 0 
L 9.8125 72.90625 
L 32.078125 72.90625 
Q 44.578125 72.90625 50.734375 67.671875 
Q 56.890625 62.453125 56.890625 51.90625 
Q 56.890625 45.015625 53.6875 40.46875 
Q 50.484375 35.9375 44.390625 34.1875 
z
M 19.671875 64.796875 
L 19.671875 38.921875 
L 32.078125 38.921875 
Q 39.203125 38.921875 42.84375 42.21875 
Q 46.484375 45.515625 46.484375 51.90625 
Q 46.484375 58.296875 42.84375 61.546875 
Q 39.203125 64.796875 32.078125 64.796875 
z
" id="DejaVuSans-82"/>
      <path d="M 10.59375 45.40625 
L 73.1875 45.40625 
L 73.1875 37.203125 
L 10.59375 37.203125 
z
M 10.59375 25.484375 
L 73.1875 25.484375 
L 73.1875 17.1875 
L 10.59375 17.1875 
z
" id="DejaVuSans-61"/>
      <path d="M 10.6875 12.40625 
L 21 12.40625 
L 21 0 
L 10.6875 0 
z
" id="DejaVuSans-46"/>
     </defs>
     <g transform="translate(436.868125 22.298437)scale(0.1 -0.1)">
      <use xlink:href="#DejaVuSans-86"/>
      <use x="68.298828" xlink:href="#DejaVuSans-97"/>
      <use x="129.578125" xlink:href="#DejaVuSans-99"/>
      <use x="184.558594" xlink:href="#DejaVuSans-99"/>
      <use x="239.539062" xlink:href="#DejaVuSans-105"/>
      <use x="267.322266" xlink:href="#DejaVuSans-110"/>
      <use x="330.701172" xlink:href="#DejaVuSans-97"/>
      <use x="391.980469" xlink:href="#DejaVuSans-116"/>
      <use x="431.189453" xlink:href="#DejaVuSans-105"/>
      <use x="458.972656" xlink:href="#DejaVuSans-111"/>
      <use x="520.154297" xlink:href="#DejaVuSans-110"/>
      <use x="583.533203" xlink:href="#DejaVuSans-32"/>
      <use x="615.320312" xlink:href="#DejaVuSans-82"/>
      <use x="684.771484" xlink:href="#DejaVuSans-97"/>
      <use x="746.050781" xlink:href="#DejaVuSans-116"/>
      <use x="785.259766" xlink:href="#DejaVuSans-101"/>
      <use x="846.783203" xlink:href="#DejaVuSans-32"/>
      <use x="878.570312" xlink:href="#DejaVuSans-61"/>
      <use x="962.359375" xlink:href="#DejaVuSans-32"/>
      <use x="994.146484" xlink:href="#DejaVuSans-48"/>
      <use x="1057.769531" xlink:href="#DejaVuSans-46"/>
      <use x="1089.556641" xlink:href="#DejaVuSans-48"/>
      <use x="1153.179688" xlink:href="#DejaVuSans-48"/>
     </g>
    </g>
    <g id="line2d_23">
     <path d="M 408.868125 33.476562 
L 428.868125 33.476562 
" style="fill:none;stroke:#ff7f0e;stroke-linecap:square;"/>
    </g>
    <g id="line2d_24"/>
    <g id="text_16">
     <!-- Vaccination Rate = 0.25 -->
     <defs>
      <path d="M 10.796875 72.90625 
L 49.515625 72.90625 
L 49.515625 64.59375 
L 19.828125 64.59375 
L 19.828125 46.734375 
Q 21.96875 47.46875 24.109375 47.828125 
Q 26.265625 48.1875 28.421875 48.1875 
Q 40.625 48.1875 47.75 41.5 
Q 54.890625 34.8125 54.890625 23.390625 
Q 54.890625 11.625 47.5625 5.09375 
Q 40.234375 -1.421875 26.90625 -1.421875 
Q 22.3125 -1.421875 17.546875 -0.640625 
Q 12.796875 0.140625 7.71875 1.703125 
L 7.71875 11.625 
Q 12.109375 9.234375 16.796875 8.0625 
Q 21.484375 6.890625 26.703125 6.890625 
Q 35.15625 6.890625 40.078125 11.328125 
Q 45.015625 15.765625 45.015625 23.390625 
Q 45.015625 31 40.078125 35.4375 
Q 35.15625 39.890625 26.703125 39.890625 
Q 22.75 39.890625 18.8125 39.015625 
Q 14.890625 38.140625 10.796875 36.28125 
z
" id="DejaVuSans-53"/>
     </defs>
     <g transform="translate(436.868125 36.976562)scale(0.1 -0.1)">
      <use xlink:href="#DejaVuSans-86"/>
      <use x="68.298828" xlink:href="#DejaVuSans-97"/>
      <use x="129.578125" xlink:href="#DejaVuSans-99"/>
      <use x="184.558594" xlink:href="#DejaVuSans-99"/>
      <use x="239.539062" xlink:href="#DejaVuSans-105"/>
      <use x="267.322266" xlink:href="#DejaVuSans-110"/>
      <use x="330.701172" xlink:href="#DejaVuSans-97"/>
      <use x="391.980469" xlink:href="#DejaVuSans-116"/>
      <use x="431.189453" xlink:href="#DejaVuSans-105"/>
      <use x="458.972656" xlink:href="#DejaVuSans-111"/>
      <use x="520.154297" xlink:href="#DejaVuSans-110"/>
      <use x="583.533203" xlink:href="#DejaVuSans-32"/>
      <use x="615.320312" xlink:href="#DejaVuSans-82"/>
      <use x="684.771484" xlink:href="#DejaVuSans-97"/>
      <use x="746.050781" xlink:href="#DejaVuSans-116"/>
      <use x="785.259766" xlink:href="#DejaVuSans-101"/>
      <use x="846.783203" xlink:href="#DejaVuSans-32"/>
      <use x="878.570312" xlink:href="#DejaVuSans-61"/>
      <use x="962.359375" xlink:href="#DejaVuSans-32"/>
      <use x="994.146484" xlink:href="#DejaVuSans-48"/>
      <use x="1057.769531" xlink:href="#DejaVuSans-46"/>
      <use x="1089.556641" xlink:href="#DejaVuSans-50"/>
      <use x="1153.179688" xlink:href="#DejaVuSans-53"/>
     </g>
    </g>
    <g id="line2d_25">
     <path d="M 408.868125 48.154687 
L 428.868125 48.154687 
" style="fill:none;stroke:#2ca02c;stroke-linecap:square;"/>
    </g>
    <g id="line2d_26"/>
    <g id="text_17">
     <!-- Vaccination Rate = 0.50 -->
     <g transform="translate(436.868125 51.654687)scale(0.1 -0.1)">
      <use xlink:href="#DejaVuSans-86"/>
      <use x="68.298828" xlink:href="#DejaVuSans-97"/>
      <use x="129.578125" xlink:href="#DejaVuSans-99"/>
      <use x="184.558594" xlink:href="#DejaVuSans-99"/>
      <use x="239.539062" xlink:href="#DejaVuSans-105"/>
      <use x="267.322266" xlink:href="#DejaVuSans-110"/>
      <use x="330.701172" xlink:href="#DejaVuSans-97"/>
      <use x="391.980469" xlink:href="#DejaVuSans-116"/>
      <use x="431.189453" xlink:href="#DejaVuSans-105"/>
      <use x="458.972656" xlink:href="#DejaVuSans-111"/>
      <use x="520.154297" xlink:href="#DejaVuSans-110"/>
      <use x="583.533203" xlink:href="#DejaVuSans-32"/>
      <use x="615.320312" xlink:href="#DejaVuSans-82"/>
      <use x="684.771484" xlink:href="#DejaVuSans-97"/>
      <use x="746.050781" xlink:href="#DejaVuSans-116"/>
      <use x="785.259766" xlink:href="#DejaVuSans-101"/>
      <use x="846.783203" xlink:href="#DejaVuSans-32"/>
      <use x="878.570312" xlink:href="#DejaVuSans-61"/>
      <use x="962.359375" xlink:href="#DejaVuSans-32"/>
      <use x="994.146484" xlink:href="#DejaVuSans-48"/>
      <use x="1057.769531" xlink:href="#DejaVuSans-46"/>
      <use x="1089.556641" xlink:href="#DejaVuSans-53"/>
      <use x="1153.179688" xlink:href="#DejaVuSans-48"/>
     </g>
    </g>
    <g id="line2d_27">
     <path d="M 408.868125 62.832812 
L 428.868125 62.832812 
" style="fill:none;stroke:#d62728;stroke-linecap:square;"/>
    </g>
    <g id="line2d_28"/>
    <g id="text_18">
     <!-- Vaccination Rate = 0.75 -->
     <defs>
      <path d="M 8.203125 72.90625 
L 55.078125 72.90625 
L 55.078125 68.703125 
L 28.609375 0 
L 18.3125 0 
L 43.21875 64.59375 
L 8.203125 64.59375 
z
" id="DejaVuSans-55"/>
     </defs>
     <g transform="translate(436.868125 66.332812)scale(0.1 -0.1)">
      <use xlink:href="#DejaVuSans-86"/>
      <use x="68.298828" xlink:href="#DejaVuSans-97"/>
      <use x="129.578125" xlink:href="#DejaVuSans-99"/>
      <use x="184.558594" xlink:href="#DejaVuSans-99"/>
      <use x="239.539062" xlink:href="#DejaVuSans-105"/>
      <use x="267.322266" xlink:href="#DejaVuSans-110"/>
      <use x="330.701172" xlink:href="#DejaVuSans-97"/>
      <use x="391.980469" xlink:href="#DejaVuSans-116"/>
      <use x="431.189453" xlink:href="#DejaVuSans-105"/>
      <use x="458.972656" xlink:href="#DejaVuSans-111"/>
      <use x="520.154297" xlink:href="#DejaVuSans-110"/>
      <use x="583.533203" xlink:href="#DejaVuSans-32"/>
      <use x="615.320312" xlink:href="#DejaVuSans-82"/>
      <use x="684.771484" xlink:href="#DejaVuSans-97"/>
      <use x="746.050781" xlink:href="#DejaVuSans-116"/>
      <use x="785.259766" xlink:href="#DejaVuSans-101"/>
      <use x="846.783203" xlink:href="#DejaVuSans-32"/>
      <use x="878.570312" xlink:href="#DejaVuSans-61"/>
      <use x="962.359375" xlink:href="#DejaVuSans-32"/>
      <use x="994.146484" xlink:href="#DejaVuSans-48"/>
      <use x="1057.769531" xlink:href="#DejaVuSans-46"/>
      <use x="1089.556641" xlink:href="#DejaVuSans-55"/>
      <use x="1153.179688" xlink:href="#DejaVuSans-53"/>
     </g>
    </g>
    <g id="line2d_29">
     <path d="M 408.868125 77.510937 
L 428.868125 77.510937 
" style="fill:none;stroke:#9467bd;stroke-linecap:square;"/>
    </g>
    <g id="line2d_30"/>
    <g id="text_19">
     <!-- Vaccination Rate = 0.85 -->
     <g transform="translate(436.868125 81.010937)scale(0.1 -0.1)">
      <use xlink:href="#DejaVuSans-86"/>
      <use x="68.298828" xlink:href="#DejaVuSans-97"/>
      <use x="129.578125" xlink:href="#DejaVuSans-99"/>
      <use x="184.558594" xlink:href="#DejaVuSans-99"/>
      <use x="239.539062" xlink:href="#DejaVuSans-105"/>
      <use x="267.322266" xlink:href="#DejaVuSans-110"/>
      <use x="330.701172" xlink:href="#DejaVuSans-97"/>
      <use x="391.980469" xlink:href="#DejaVuSans-116"/>
      <use x="431.189453" xlink:href="#DejaVuSans-105"/>
      <use x="458.972656" xlink:href="#DejaVuSans-111"/>
      <use x="520.154297" xlink:href="#DejaVuSans-110"/>
      <use x="583.533203" xlink:href="#DejaVuSans-32"/>
      <use x="615.320312" xlink:href="#DejaVuSans-82"/>
      <use x="684.771484" xlink:href="#DejaVuSans-97"/>
      <use x="746.050781" xlink:href="#DejaVuSans-116"/>
      <use x="785.259766" xlink:href="#DejaVuSans-101"/>
      <use x="846.783203" xlink:href="#DejaVuSans-32"/>
      <use x="878.570312" xlink:href="#DejaVuSans-61"/>
      <use x="962.359375" xlink:href="#DejaVuSans-32"/>
      <use x="994.146484" xlink:href="#DejaVuSans-48"/>
      <use x="1057.769531" xlink:href="#DejaVuSans-46"/>
      <use x="1089.556641" xlink:href="#DejaVuSans-56"/>
      <use x="1153.179688" xlink:href="#DejaVuSans-53"/>
     </g>
    </g>
    <g id="line2d_31">
     <path d="M 408.868125 92.189062 
L 428.868125 92.189062 
" style="fill:none;stroke:#8c564b;stroke-linecap:square;"/>
    </g>
    <g id="line2d_32"/>
    <g id="text_20">
     <!-- Vaccination Rate = 0.90 -->
     <defs>
      <path d="M 10.984375 1.515625 
L 10.984375 10.5 
Q 14.703125 8.734375 18.5 7.8125 
Q 22.3125 6.890625 25.984375 6.890625 
Q 35.75 6.890625 40.890625 13.453125 
Q 46.046875 20.015625 46.78125 33.40625 
Q 43.953125 29.203125 39.59375 26.953125 
Q 35.25 24.703125 29.984375 24.703125 
Q 19.046875 24.703125 12.671875 31.3125 
Q 6.296875 37.9375 6.296875 49.421875 
Q 6.296875 60.640625 12.9375 67.421875 
Q 19.578125 74.21875 30.609375 74.21875 
Q 43.265625 74.21875 49.921875 64.515625 
Q 56.59375 54.828125 56.59375 36.375 
Q 56.59375 19.140625 48.40625 8.859375 
Q 40.234375 -1.421875 26.421875 -1.421875 
Q 22.703125 -1.421875 18.890625 -0.6875 
Q 15.09375 0.046875 10.984375 1.515625 
z
M 30.609375 32.421875 
Q 37.25 32.421875 41.125 36.953125 
Q 45.015625 41.5 45.015625 49.421875 
Q 45.015625 57.28125 41.125 61.84375 
Q 37.25 66.40625 30.609375 66.40625 
Q 23.96875 66.40625 20.09375 61.84375 
Q 16.21875 57.28125 16.21875 49.421875 
Q 16.21875 41.5 20.09375 36.953125 
Q 23.96875 32.421875 30.609375 32.421875 
z
" id="DejaVuSans-57"/>
     </defs>
     <g transform="translate(436.868125 95.689062)scale(0.1 -0.1)">
      <use xlink:href="#DejaVuSans-86"/>
      <use x="68.298828" xlink:href="#DejaVuSans-97"/>
      <use x="129.578125" xlink:href="#DejaVuSans-99"/>
      <use x="184.558594" xlink:href="#DejaVuSans-99"/>
      <use x="239.539062" xlink:href="#DejaVuSans-105"/>
      <use x="267.322266" xlink:href="#DejaVuSans-110"/>
      <use x="330.701172" xlink:href="#DejaVuSans-97"/>
      <use x="391.980469" xlink:href="#DejaVuSans-116"/>
      <use x="431.189453" xlink:href="#DejaVuSans-105"/>
      <use x="458.972656" xlink:href="#DejaVuSans-111"/>
      <use x="520.154297" xlink:href="#DejaVuSans-110"/>
      <use x="583.533203" xlink:href="#DejaVuSans-32"/>
      <use x="615.320312" xlink:href="#DejaVuSans-82"/>
      <use x="684.771484" xlink:href="#DejaVuSans-97"/>
      <use x="746.050781" xlink:href="#DejaVuSans-116"/>
      <use x="785.259766" xlink:href="#DejaVuSans-101"/>
      <use x="846.783203" xlink:href="#DejaVuSans-32"/>
      <use x="878.570312" xlink:href="#DejaVuSans-61"/>
      <use x="962.359375" xlink:href="#DejaVuSans-32"/>
      <use x="994.146484" xlink:href="#DejaVuSans-48"/>
      <use x="1057.769531" xlink:href="#DejaVuSans-46"/>
      <use x="1089.556641" xlink:href="#DejaVuSans-57"/>
      <use x="1153.179688" xlink:href="#DejaVuSans-48"/>
     </g>
    </g>
    <g id="line2d_33">
     <path d="M 408.868125 106.867187 
L 428.868125 106.867187 
" style="fill:none;stroke:#e377c2;stroke-linecap:square;"/>
    </g>
    <g id="line2d_34"/>
    <g id="text_21">
     <!-- Vaccination Rate = 0.95 -->
     <g transform="translate(436.868125 110.367187)scale(0.1 -0.1)">
      <use xlink:href="#DejaVuSans-86"/>
      <use x="68.298828" xlink:href="#DejaVuSans-97"/>
      <use x="129.578125" xlink:href="#DejaVuSans-99"/>
      <use x="184.558594" xlink:href="#DejaVuSans-99"/>
      <use x="239.539062" xlink:href="#DejaVuSans-105"/>
      <use x="267.322266" xlink:href="#DejaVuSans-110"/>
      <use x="330.701172" xlink:href="#DejaVuSans-97"/>
      <use x="391.980469" xlink:href="#DejaVuSans-116"/>
      <use x="431.189453" xlink:href="#DejaVuSans-105"/>
      <use x="458.972656" xlink:href="#DejaVuSans-111"/>
      <use x="520.154297" xlink:href="#DejaVuSans-110"/>
      <use x="583.533203" xlink:href="#DejaVuSans-32"/>
      <use x="615.320312" xlink:href="#DejaVuSans-82"/>
      <use x="684.771484" xlink:href="#DejaVuSans-97"/>
      <use x="746.050781" xlink:href="#DejaVuSans-116"/>
      <use x="785.259766" xlink:href="#DejaVuSans-101"/>
      <use x="846.783203" xlink:href="#DejaVuSans-32"/>
      <use x="878.570312" xlink:href="#DejaVuSans-61"/>
      <use x="962.359375" xlink:href="#DejaVuSans-32"/>
      <use x="994.146484" xlink:href="#DejaVuSans-48"/>
      <use x="1057.769531" xlink:href="#DejaVuSans-46"/>
      <use x="1089.556641" xlink:href="#DejaVuSans-57"/>
      <use x="1153.179688" xlink:href="#DejaVuSans-53"/>
     </g>
    </g>
    <g id="line2d_35">
     <path d="M 408.868125 121.545312 
L 428.868125 121.545312 
" style="fill:none;stroke:#7f7f7f;stroke-linecap:square;"/>
    </g>
    <g id="line2d_36"/>
    <g id="text_22">
     <!-- Vaccination Rate = 1.00 -->
     <g transform="translate(436.868125 125.045312)scale(0.1 -0.1)">
      <use xlink:href="#DejaVuSans-86"/>
      <use x="68.298828" xlink:href="#DejaVuSans-97"/>
      <use x="129.578125" xlink:href="#DejaVuSans-99"/>
      <use x="184.558594" xlink:href="#DejaVuSans-99"/>
      <use x="239.539062" xlink:href="#DejaVuSans-105"/>
      <use x="267.322266" xlink:href="#DejaVuSans-110"/>
      <use x="330.701172" xlink:href="#DejaVuSans-97"/>
      <use x="391.980469" xlink:href="#DejaVuSans-116"/>
      <use x="431.189453" xlink:href="#DejaVuSans-105"/>
      <use x="458.972656" xlink:href="#DejaVuSans-111"/>
      <use x="520.154297" xlink:href="#DejaVuSans-110"/>
      <use x="583.533203" xlink:href="#DejaVuSans-32"/>
      <use x="615.320312" xlink:href="#DejaVuSans-82"/>
      <use x="684.771484" xlink:href="#DejaVuSans-97"/>
      <use x="746.050781" xlink:href="#DejaVuSans-116"/>
      <use x="785.259766" xlink:href="#DejaVuSans-101"/>
      <use x="846.783203" xlink:href="#DejaVuSans-32"/>
      <use x="878.570312" xlink:href="#DejaVuSans-61"/>
      <use x="962.359375" xlink:href="#DejaVuSans-32"/>
      <use x="994.146484" xlink:href="#DejaVuSans-49"/>
      <use x="1057.769531" xlink:href="#DejaVuSans-46"/>
      <use x="1089.556641" xlink:href="#DejaVuSans-48"/>
      <use x="1153.179688" xlink:href="#DejaVuSans-48"/>
     </g>
    </g>
   </g>
  </g>
 </g>
 <defs>
  <clipPath id="pbeeba09f4f">
   <rect height="217.44" width="334.8" x="53.328125" y="10.7"/>
  </clipPath>
 </defs>
</svg>
